<?xml version="1.0" encoding="UTF-8" standalone="no"?><svg xmlns="http://www.w3.org/2000/svg" xmlns:xlink="http://www.w3.org/1999/xlink" contentStyleType="text/css" height="937px" preserveAspectRatio="none" style="width:2188px;height:937px;background:#FFFFFF;" version="1.1" viewBox="0 0 2188 937" width="2188px" zoomAndPan="magnify"><defs/><g><rect fill="none" height="26.2969" id="_title" style="stroke:none;stroke-width:1.0;" width="495" x="845.5" y="10"/><text fill="#000000" font-family="sans-serif" font-size="14" font-weight="bold" lengthAdjust="spacing" textLength="485" x="850.5" y="27.9951">NewExercise Sequence Diagram (Parser passes parsed args)</text><rect fill="#FFFFFF" height="696.8594" style="stroke:#181818;stroke-width:1.0;" width="10" x="375" y="149.7266"/><rect fill="#FFFFFF" height="29.1328" style="stroke:#181818;stroke-width:1.0;" width="10" x="840" y="178.8594"/><rect fill="#FFFFFF" height="29.1328" style="stroke:#181818;stroke-width:1.0;" width="10" x="840" y="615.8516"/><rect fill="#FFFFFF" height="87.3984" style="stroke:#181818;stroke-width:1.0;" width="10" x="892.5" y="237.125"/><rect fill="#FFFFFF" height="29.1328" style="stroke:#181818;stroke-width:1.0;" width="10" x="1332.5" y="266.2578"/><rect fill="#FFFFFF" height="291.3281" style="stroke:#181818;stroke-width:1.0;" width="10" x="1332.5" y="353.6563"/><rect fill="#FFFFFF" height="29.1328" style="stroke:#181818;stroke-width:1.0;" width="10" x="1566.5" y="382.7891"/><rect fill="#FFFFFF" height="29.1328" style="stroke:#181818;stroke-width:1.0;" width="10" x="1566.5" y="441.0547"/><rect fill="#FFFFFF" height="29.1328" style="stroke:#181818;stroke-width:1.0;" width="10" x="1669.5" y="742.1875"/><rect fill="#FFFFFF" height="87.3984" style="stroke:#181818;stroke-width:1.0;" width="10" x="1851" y="499.3203"/><rect fill="#FFFFFF" height="29.1328" style="stroke:#181818;stroke-width:1.0;" width="10" x="2141" y="528.4531"/><rect fill="none" height="179.6016" style="stroke:#000000;stroke-width:1.5;" width="1435.5" x="313" y="659.9844"/><rect fill="none" height="46.2656" style="stroke:#000000;stroke-width:1.5;" width="545.5" x="323" y="786.3203"/><line style="stroke:#181818;stroke-width:0.5;stroke-dasharray:5.0,5.0;" x1="24" x2="24" y1="118.5938" y2="856.5859"/><line style="stroke:#181818;stroke-width:0.5;stroke-dasharray:5.0,5.0;" x1="380" x2="380" y1="118.5938" y2="856.5859"/><line style="stroke:#181818;stroke-width:0.5;stroke-dasharray:5.0,5.0;" x1="844.5" x2="844.5" y1="118.5938" y2="856.5859"/><line style="stroke:#181818;stroke-width:0.5;stroke-dasharray:5.0,5.0;" x1="897.5" x2="897.5" y1="118.5938" y2="856.5859"/><line style="stroke:#181818;stroke-width:0.5;stroke-dasharray:5.0,5.0;" x1="1337" x2="1337" y1="118.5938" y2="856.5859"/><line style="stroke:#181818;stroke-width:0.5;stroke-dasharray:5.0,5.0;" x1="1571.5" x2="1571.5" y1="118.5938" y2="856.5859"/><line style="stroke:#181818;stroke-width:0.5;stroke-dasharray:5.0,5.0;" x1="1674.5" x2="1674.5" y1="118.5938" y2="856.5859"/><line style="stroke:#181818;stroke-width:0.5;stroke-dasharray:5.0,5.0;" x1="1779.5" x2="1779.5" y1="118.5938" y2="856.5859"/><line style="stroke:#181818;stroke-width:0.5;stroke-dasharray:5.0,5.0;" x1="1855.5" x2="1855.5" y1="118.5938" y2="856.5859"/><line style="stroke:#181818;stroke-width:0.5;stroke-dasharray:5.0,5.0;" x1="2146" x2="2146" y1="118.5938" y2="856.5859"/><text fill="#000000" font-family="sans-serif" font-size="14" lengthAdjust="spacing" textLength="32" x="5" y="115.292">User</text><ellipse cx="24" cy="50.7969" fill="#E2E2F0" rx="8" ry="8" style="stroke:#181818;stroke-width:0.5;"/><path d="M24,58.7969 L24,85.7969 M11,66.7969 L37,66.7969 M24,85.7969 L11,100.7969 M24,85.7969 L37,100.7969 " fill="none" style="stroke:#181818;stroke-width:0.5;"/><text fill="#000000" font-family="sans-serif" font-size="14" lengthAdjust="spacing" textLength="32" x="5" y="868.5811">User</text><ellipse cx="24" cy="880.3828" fill="#E2E2F0" rx="8" ry="8" style="stroke:#181818;stroke-width:0.5;"/><path d="M24,888.3828 L24,915.3828 M11,896.3828 L37,896.3828 M24,915.3828 L11,930.3828 M24,915.3828 L37,930.3828 " fill="none" style="stroke:#181818;stroke-width:0.5;"/><rect fill="#E2E2F0" height="30.2969" rx="2.5" ry="2.5" style="stroke:#181818;stroke-width:0.5;" width="94" x="333" y="87.2969"/><text fill="#000000" font-family="sans-serif" font-size="14" lengthAdjust="spacing" textLength="80" x="340" y="107.292">FitnessONE</text><rect fill="#E2E2F0" height="30.2969" rx="2.5" ry="2.5" style="stroke:#181818;stroke-width:0.5;" width="94" x="333" y="855.5859"/><text fill="#000000" font-family="sans-serif" font-size="14" lengthAdjust="spacing" textLength="80" x="340" y="875.5811">FitnessONE</text><rect fill="#E2E2F0" height="30.2969" rx="2.5" ry="2.5" style="stroke:#181818;stroke-width:0.5;" width="27" x="831.5" y="87.2969"/><text fill="#000000" font-family="sans-serif" font-size="14" lengthAdjust="spacing" textLength="13" x="838.5" y="107.292">Ui</text><rect fill="#E2E2F0" height="30.2969" rx="2.5" ry="2.5" style="stroke:#181818;stroke-width:0.5;" width="27" x="831.5" y="855.5859"/><text fill="#000000" font-family="sans-serif" font-size="14" lengthAdjust="spacing" textLength="13" x="838.5" y="875.5811">Ui</text><rect fill="#E2E2F0" height="30.2969" rx="2.5" ry="2.5" style="stroke:#181818;stroke-width:0.5;" width="58" x="868.5" y="87.2969"/><text fill="#000000" font-family="sans-serif" font-size="14" lengthAdjust="spacing" textLength="44" x="875.5" y="107.292">Parser</text><rect fill="#E2E2F0" height="30.2969" rx="2.5" ry="2.5" style="stroke:#181818;stroke-width:0.5;" width="58" x="868.5" y="855.5859"/><text fill="#000000" font-family="sans-serif" font-size="14" lengthAdjust="spacing" textLength="44" x="875.5" y="875.5811">Parser</text><rect fill="#E2E2F0" height="30.2969" rx="2.5" ry="2.5" style="stroke:#181818;stroke-width:0.5;" width="173" x="1251" y="87.2969"/><text fill="#000000" font-family="sans-serif" font-size="14" lengthAdjust="spacing" textLength="159" x="1258" y="107.292">NewExerciseCommand</text><rect fill="#E2E2F0" height="30.2969" rx="2.5" ry="2.5" style="stroke:#181818;stroke-width:0.5;" width="173" x="1251" y="855.5859"/><text fill="#000000" font-family="sans-serif" font-size="14" lengthAdjust="spacing" textLength="159" x="1258" y="875.5811">NewExerciseCommand</text><rect fill="#E2E2F0" height="30.2969" rx="2.5" ry="2.5" style="stroke:#181818;stroke-width:0.5;" width="58" x="1542.5" y="87.2969"/><text fill="#000000" font-family="sans-serif" font-size="14" lengthAdjust="spacing" textLength="44" x="1549.5" y="107.292">Coach</text><rect fill="#E2E2F0" height="30.2969" rx="2.5" ry="2.5" style="stroke:#181818;stroke-width:0.5;" width="58" x="1542.5" y="855.5859"/><text fill="#000000" font-family="sans-serif" font-size="14" lengthAdjust="spacing" textLength="44" x="1549.5" y="875.5811">Coach</text><rect fill="#E2E2F0" height="30.2969" rx="2.5" ry="2.5" style="stroke:#181818;stroke-width:0.5;" width="128" x="1610.5" y="87.2969"/><text fill="#000000" font-family="sans-serif" font-size="14" lengthAdjust="spacing" textLength="114" x="1617.5" y="107.292">StorageManager</text><rect fill="#E2E2F0" height="30.2969" rx="2.5" ry="2.5" style="stroke:#181818;stroke-width:0.5;" width="128" x="1610.5" y="855.5859"/><text fill="#000000" font-family="sans-serif" font-size="14" lengthAdjust="spacing" textLength="114" x="1617.5" y="875.5811">StorageManager</text><rect fill="#E2E2F0" height="30.2969" rx="2.5" ry="2.5" style="stroke:#181818;stroke-width:0.5;" width="63" x="1748.5" y="87.2969"/><text fill="#000000" font-family="sans-serif" font-size="14" lengthAdjust="spacing" textLength="49" x="1755.5" y="107.292">Athlete</text><rect fill="#E2E2F0" height="30.2969" rx="2.5" ry="2.5" style="stroke:#181818;stroke-width:0.5;" width="63" x="1748.5" y="855.5859"/><text fill="#000000" font-family="sans-serif" font-size="14" lengthAdjust="spacing" textLength="49" x="1755.5" y="875.5811">Athlete</text><rect fill="#E2E2F0" height="30.2969" rx="2.5" ry="2.5" style="stroke:#181818;stroke-width:0.5;" width="69" x="1821.5" y="87.2969"/><text fill="#000000" font-family="sans-serif" font-size="14" lengthAdjust="spacing" textLength="55" x="1828.5" y="107.292">Session</text><rect fill="#E2E2F0" height="30.2969" rx="2.5" ry="2.5" style="stroke:#181818;stroke-width:0.5;" width="69" x="1821.5" y="855.5859"/><text fill="#000000" font-family="sans-serif" font-size="14" lengthAdjust="spacing" textLength="55" x="1828.5" y="875.5811">Session</text><rect fill="#E2E2F0" height="30.2969" rx="2.5" ry="2.5" style="stroke:#181818;stroke-width:0.5;" width="72" x="2110" y="87.2969"/><text fill="#000000" font-family="sans-serif" font-size="14" lengthAdjust="spacing" textLength="58" x="2117" y="107.292">Exercise</text><rect fill="#E2E2F0" height="30.2969" rx="2.5" ry="2.5" style="stroke:#181818;stroke-width:0.5;" width="72" x="2110" y="855.5859"/><text fill="#000000" font-family="sans-serif" font-size="14" lengthAdjust="spacing" textLength="58" x="2117" y="875.5811">Exercise</text><rect fill="#FFFFFF" height="696.8594" style="stroke:#181818;stroke-width:1.0;" width="10" x="375" y="149.7266"/><rect fill="#FFFFFF" height="29.1328" style="stroke:#181818;stroke-width:1.0;" width="10" x="840" y="178.8594"/><rect fill="#FFFFFF" height="29.1328" style="stroke:#181818;stroke-width:1.0;" width="10" x="840" y="615.8516"/><rect fill="#FFFFFF" height="87.3984" style="stroke:#181818;stroke-width:1.0;" width="10" x="892.5" y="237.125"/><rect fill="#FFFFFF" height="29.1328" style="stroke:#181818;stroke-width:1.0;" width="10" x="1332.5" y="266.2578"/><rect fill="#FFFFFF" height="291.3281" style="stroke:#181818;stroke-width:1.0;" width="10" x="1332.5" y="353.6563"/><rect fill="#FFFFFF" height="29.1328" style="stroke:#181818;stroke-width:1.0;" width="10" x="1566.5" y="382.7891"/><rect fill="#FFFFFF" height="29.1328" style="stroke:#181818;stroke-width:1.0;" width="10" x="1566.5" y="441.0547"/><rect fill="#FFFFFF" height="29.1328" style="stroke:#181818;stroke-width:1.0;" width="10" x="1669.5" y="742.1875"/><rect fill="#FFFFFF" height="87.3984" style="stroke:#181818;stroke-width:1.0;" width="10" x="1851" y="499.3203"/><rect fill="#FFFFFF" height="29.1328" style="stroke:#181818;stroke-width:1.0;" width="10" x="2141" y="528.4531"/><polygon fill="#181818" points="363,145.7266,373,149.7266,363,153.7266,367,149.7266" style="stroke:#181818;stroke-width:1.0;"/><line style="stroke:#181818;stroke-width:1.0;" x1="24" x2="369" y1="149.7266" y2="149.7266"/><text fill="#000000" font-family="sans-serif" font-size="13" lengthAdjust="spacing" textLength="332" x="31" y="144.6606">(user types "/newexercise 0001 001 leg-press 5 15")</text><polygon fill="#181818" points="828,174.8594,838,178.8594,828,182.8594,832,178.8594" style="stroke:#181818;stroke-width:1.0;"/><line style="stroke:#181818;stroke-width:1.0;" x1="385" x2="834" y1="178.8594" y2="178.8594"/><text fill="#000000" font-family="sans-serif" font-size="13" lengthAdjust="spacing" textLength="106" x="392" y="173.7935">readCommand()</text><polygon fill="#181818" points="396,203.9922,386,207.9922,396,211.9922,392,207.9922" style="stroke:#181818;stroke-width:1.0;"/><line style="stroke:#181818;stroke-width:1.0;stroke-dasharray:2.0,2.0;" x1="390" x2="844" y1="207.9922" y2="207.9922"/><text fill="#000000" font-family="sans-serif" font-size="13" lengthAdjust="spacing" textLength="251" x="402" y="202.9263">"/newexercise 0001 001 leg-press 5 15"</text><polygon fill="#181818" points="880.5,233.125,890.5,237.125,880.5,241.125,884.5,237.125" style="stroke:#181818;stroke-width:1.0;"/><line style="stroke:#181818;stroke-width:1.0;" x1="385" x2="886.5" y1="237.125" y2="237.125"/><text fill="#000000" font-family="sans-serif" font-size="13" lengthAdjust="spacing" textLength="297" x="392" y="232.0591">parse("/newexercise 0001 001 leg-press 5 15")</text><polygon fill="#181818" points="1320.5,262.2578,1330.5,266.2578,1320.5,270.2578,1324.5,266.2578" style="stroke:#181818;stroke-width:1.0;"/><line style="stroke:#181818;stroke-width:1.0;" x1="902.5" x2="1326.5" y1="266.2578" y2="266.2578"/><text fill="#000000" font-family="sans-serif" font-size="13" lengthAdjust="spacing" textLength="411" x="909.5" y="261.1919">&lt;&lt;create&gt;&gt; NewExerciseCommand("0001 001 leg-press 5 15")</text><polygon fill="#181818" points="913.5,291.3906,903.5,295.3906,913.5,299.3906,909.5,295.3906" style="stroke:#181818;stroke-width:1.0;"/><line style="stroke:#181818;stroke-width:1.0;stroke-dasharray:2.0,2.0;" x1="907.5" x2="1336.5" y1="295.3906" y2="295.3906"/><text fill="#000000" font-family="sans-serif" font-size="13" lengthAdjust="spacing" textLength="76" x="919.5" y="290.3247">constructed</text><polygon fill="#181818" points="396,320.5234,386,324.5234,396,328.5234,392,324.5234" style="stroke:#181818;stroke-width:1.0;"/><line style="stroke:#181818;stroke-width:1.0;stroke-dasharray:2.0,2.0;" x1="390" x2="896.5" y1="324.5234" y2="324.5234"/><text fill="#000000" font-family="sans-serif" font-size="13" lengthAdjust="spacing" textLength="205" x="402" y="319.4575">NewExerciseCommand instance</text><polygon fill="#181818" points="1320.5,349.6563,1330.5,353.6563,1320.5,357.6563,1324.5,353.6563" style="stroke:#181818;stroke-width:1.0;"/><line style="stroke:#181818;stroke-width:1.0;" x1="385" x2="1326.5" y1="353.6563" y2="353.6563"/><text fill="#000000" font-family="sans-serif" font-size="13" lengthAdjust="spacing" textLength="196" x="392" y="348.5903">execute(coachController, view)</text><polygon fill="#181818" points="1554.5,378.7891,1564.5,382.7891,1554.5,386.7891,1558.5,382.7891" style="stroke:#181818;stroke-width:1.0;"/><line style="stroke:#181818;stroke-width:1.0;" x1="1342.5" x2="1560.5" y1="382.7891" y2="382.7891"/><text fill="#000000" font-family="sans-serif" font-size="13" lengthAdjust="spacing" textLength="155" x="1349.5" y="377.7231">accessAthleteID("0001")</text><polygon fill="#181818" points="1353.5,407.9219,1343.5,411.9219,1353.5,415.9219,1349.5,411.9219" style="stroke:#181818;stroke-width:1.0;"/><line style="stroke:#181818;stroke-width:1.0;stroke-dasharray:2.0,2.0;" x1="1347.5" x2="1570.5" y1="411.9219" y2="411.9219"/><text fill="#000000" font-family="sans-serif" font-size="13" lengthAdjust="spacing" textLength="46" x="1359.5" y="406.856">Athlete</text><polygon fill="#181818" points="1554.5,437.0547,1564.5,441.0547,1554.5,445.0547,1558.5,441.0547" style="stroke:#181818;stroke-width:1.0;"/><line style="stroke:#181818;stroke-width:1.0;" x1="1342.5" x2="1560.5" y1="441.0547" y2="441.0547"/><text fill="#000000" font-family="sans-serif" font-size="13" lengthAdjust="spacing" textLength="205" x="1349.5" y="435.9888">accessSessionID(Athlete, "001")</text><polygon fill="#181818" points="1353.5,466.1875,1343.5,470.1875,1353.5,474.1875,1349.5,470.1875" style="stroke:#181818;stroke-width:1.0;"/><line style="stroke:#181818;stroke-width:1.0;stroke-dasharray:2.0,2.0;" x1="1347.5" x2="1570.5" y1="470.1875" y2="470.1875"/><text fill="#000000" font-family="sans-serif" font-size="13" lengthAdjust="spacing" textLength="50" x="1359.5" y="465.1216">Session</text><polygon fill="#181818" points="1839,495.3203,1849,499.3203,1839,503.3203,1843,499.3203" style="stroke:#181818;stroke-width:1.0;"/><line style="stroke:#181818;stroke-width:1.0;" x1="1342.5" x2="1845" y1="499.3203" y2="499.3203"/><text fill="#000000" font-family="sans-serif" font-size="13" lengthAdjust="spacing" textLength="196" x="1349.5" y="494.2544">addExercise("leg-press", 5, 15)</text><polygon fill="#181818" points="2129,524.4531,2139,528.4531,2129,532.4531,2133,528.4531" style="stroke:#181818;stroke-width:1.0;"/><line style="stroke:#181818;stroke-width:1.0;" x1="1861" x2="2135" y1="528.4531" y2="528.4531"/><text fill="#000000" font-family="sans-serif" font-size="13" lengthAdjust="spacing" textLength="261" x="1868" y="523.3872">&lt;&lt;create&gt;&gt; Exercise("leg-press", 5, 15)</text><polygon fill="#181818" points="1872,553.5859,1862,557.5859,1872,561.5859,1868,557.5859" style="stroke:#181818;stroke-width:1.0;"/><line style="stroke:#181818;stroke-width:1.0;stroke-dasharray:2.0,2.0;" x1="1866" x2="2145" y1="557.5859" y2="557.5859"/><text fill="#000000" font-family="sans-serif" font-size="13" lengthAdjust="spacing" textLength="111" x="1878" y="552.52">Exercise instance</text><polygon fill="#181818" points="1353.5,582.7188,1343.5,586.7188,1353.5,590.7188,1349.5,586.7188" style="stroke:#181818;stroke-width:1.0;"/><line style="stroke:#181818;stroke-width:1.0;stroke-dasharray:2.0,2.0;" x1="1347.5" x2="1855" y1="586.7188" y2="586.7188"/><text fill="#000000" font-family="sans-serif" font-size="13" lengthAdjust="spacing" textLength="53" x="1359.5" y="581.6528">Exercise</text><polygon fill="#181818" points="861,611.8516,851,615.8516,861,619.8516,857,615.8516" style="stroke:#181818;stroke-width:1.0;"/><line style="stroke:#181818;stroke-width:1.0;" x1="855" x2="1331.5" y1="615.8516" y2="615.8516"/><text fill="#000000" font-family="sans-serif" font-size="13" lengthAdjust="spacing" textLength="262" x="867" y="610.7856">printWithDivider("New exercise created!")</text><polygon fill="#181818" points="35,640.9844,25,644.9844,35,648.9844,31,644.9844" style="stroke:#181818;stroke-width:1.0;"/><line style="stroke:#181818;stroke-width:1.0;stroke-dasharray:2.0,2.0;" x1="29" x2="844" y1="644.9844" y2="644.9844"/><text fill="#000000" font-family="sans-serif" font-size="13" lengthAdjust="spacing" textLength="128" x="41" y="639.9185">display confirmation</text><path d="M313,659.9844 L377,659.9844 L377,667.1172 L367,677.1172 L313,677.1172 L313,659.9844 " fill="#EEEEEE" style="stroke:#000000;stroke-width:1.5;"/><rect fill="none" height="179.6016" style="stroke:#000000;stroke-width:1.5;" width="1435.5" x="313" y="659.9844"/><text fill="#000000" font-family="sans-serif" font-size="13" font-weight="bold" lengthAdjust="spacing" textLength="19" x="328" y="673.0513">alt</text><text fill="#000000" font-family="sans-serif" font-size="11" font-weight="bold" lengthAdjust="spacing" textLength="319" x="392" y="672.1948">[invalid input (missing or malformed parameters)]</text><polygon fill="#181818" points="833,694.25,843,698.25,833,702.25,837,698.25" style="stroke:#181818;stroke-width:1.0;"/><line style="stroke:#181818;stroke-width:1.0;" x1="385" x2="839" y1="698.25" y2="698.25"/><text fill="#000000" font-family="sans-serif" font-size="13" lengthAdjust="spacing" textLength="436" x="392" y="693.1841">printWithDivider("InvalidCommandException: input format incorrect")</text><line style="stroke:#000000;stroke-width:1.0;stroke-dasharray:2.0,2.0;" x1="313" x2="1748.5" y1="707.25" y2="707.25"/><text fill="#000000" font-family="sans-serif" font-size="11" font-weight="bold" lengthAdjust="spacing" textLength="61" x="318" y="717.4604">[success]</text><polygon fill="#181818" points="1657.5,738.1875,1667.5,742.1875,1657.5,746.1875,1661.5,742.1875" style="stroke:#181818;stroke-width:1.0;"/><line style="stroke:#181818;stroke-width:1.0;" x1="385" x2="1663.5" y1="742.1875" y2="742.1875"/><text fill="#000000" font-family="sans-serif" font-size="13" lengthAdjust="spacing" textLength="140" x="392" y="737.1216">save(coachController)</text><polygon fill="#181818" points="396,767.3203,386,771.3203,396,775.3203,392,771.3203" style="stroke:#181818;stroke-width:1.0;"/><line style="stroke:#181818;stroke-width:1.0;stroke-dasharray:2.0,2.0;" x1="390" x2="1673.5" y1="771.3203" y2="771.3203"/><text fill="#000000" font-family="sans-serif" font-size="13" lengthAdjust="spacing" textLength="138" x="402" y="766.2544">success / IOException</text><path d="M323,786.3203 L387,786.3203 L387,793.4531 L377,803.4531 L323,803.4531 L323,786.3203 " fill="#EEEEEE" style="stroke:#000000;stroke-width:1.5;"/><rect fill="none" height="46.2656" style="stroke:#000000;stroke-width:1.5;" width="545.5" x="323" y="786.3203"/><text fill="#000000" font-family="sans-serif" font-size="13" font-weight="bold" lengthAdjust="spacing" textLength="19" x="338" y="799.3872">alt</text><text fill="#000000" font-family="sans-serif" font-size="11" font-weight="bold" lengthAdjust="spacing" textLength="121" x="402" y="798.5308">[save IOException]</text><polygon fill="#181818" points="833,820.5859,843,824.5859,833,828.5859,837,824.5859" style="stroke:#181818;stroke-width:1.0;"/><line style="stroke:#181818;stroke-width:1.0;" x1="385" x2="839" y1="824.5859" y2="824.5859"/><text fill="#000000" font-family="sans-serif" font-size="13" lengthAdjust="spacing" textLength="299" x="392" y="819.52">printWithDivider("Failed to save data: &lt;msg&gt;")</text><!--MD5=[cc5a21af094015d022b61536760e0088]
@startuml
title NewExercise Sequence Diagram (Parser passes parsed args)

actor User
participant FitnessONE
participant Ui
participant Parser
participant NewExerciseCommand
participant Coach
participant StorageManager
participant Athlete
participant Session
participant Exercise

User -> FitnessONE: (user types "/newexercise 0001 001 leg-press 5 15")
activate FitnessONE

FitnessONE -> Ui: readCommand()
activate Ui
Ui - -> FitnessONE: "/newexercise 0001 001 leg-press 5 15"
deactivate Ui

FitnessONE -> Parser: parse("/newexercise 0001 001 leg-press 5 15")
activate Parser
' Parser parses arguments first, then constructs command with parsed params
Parser -> NewExerciseCommand: <<create>> NewExerciseCommand("0001 001 leg-press 5 15")
activate NewExerciseCommand
NewExerciseCommand - -> Parser: constructed
deactivate NewExerciseCommand
Parser - -> FitnessONE: NewExerciseCommand instance
deactivate Parser

FitnessONE -> NewExerciseCommand: execute(coachController, view)
activate NewExerciseCommand
NewExerciseCommand -> Coach: accessAthleteID("0001")
activate Coach
Coach - -> NewExerciseCommand: Athlete
deactivate Coach

NewExerciseCommand -> Coach: accessSessionID(Athlete, "001")
activate Coach
Coach - -> NewExerciseCommand: Session
deactivate Coach

NewExerciseCommand -> Session: addExercise("leg-press", 5, 15)
activate Session
Session -> Exercise: <<create>> Exercise("leg-press", 5, 15)
activate Exercise
Exercise - -> Session: Exercise instance
deactivate Exercise
Session - -> NewExerciseCommand: Exercise
deactivate Session

NewExerciseCommand -> Ui: printWithDivider("New exercise created!")
activate Ui
Ui - -> User: display confirmation
deactivate Ui
deactivate NewExerciseCommand

alt invalid input (missing or malformed parameters)
    FitnessONE -> Ui: printWithDivider("InvalidCommandException: input format incorrect")
else success
    FitnessONE -> StorageManager: save(coachController)
    activate StorageManager
    StorageManager - -> FitnessONE: success / IOException
    deactivate StorageManager

    alt save IOException
        FitnessONE -> Ui: printWithDivider("Failed to save data: <msg>")
    end
end

deactivate FitnessONE
@enduml

@startuml
title NewExercise Sequence Diagram (Parser passes parsed args)

actor User
participant FitnessONE
participant Ui
participant Parser
participant NewExerciseCommand
participant Coach
participant StorageManager
participant Athlete
participant Session
participant Exercise

User -> FitnessONE: (user types "/newexercise 0001 001 leg-press 5 15")
activate FitnessONE

FitnessONE -> Ui: readCommand()
activate Ui
Ui - -> FitnessONE: "/newexercise 0001 001 leg-press 5 15"
deactivate Ui

FitnessONE -> Parser: parse("/newexercise 0001 001 leg-press 5 15")
activate Parser
Parser -> NewExerciseCommand: <<create>> NewExerciseCommand("0001 001 leg-press 5 15")
activate NewExerciseCommand
NewExerciseCommand - -> Parser: constructed
deactivate NewExerciseCommand
Parser - -> FitnessONE: NewExerciseCommand instance
deactivate Parser

FitnessONE -> NewExerciseCommand: execute(coachController, view)
activate NewExerciseCommand
NewExerciseCommand -> Coach: accessAthleteID("0001")
activate Coach
Coach - -> NewExerciseCommand: Athlete
deactivate Coach

NewExerciseCommand -> Coach: accessSessionID(Athlete, "001")
activate Coach
Coach - -> NewExerciseCommand: Session
deactivate Coach

NewExerciseCommand -> Session: addExercise("leg-press", 5, 15)
activate Session
Session -> Exercise: <<create>> Exercise("leg-press", 5, 15)
activate Exercise
Exercise - -> Session: Exercise instance
deactivate Exercise
Session - -> NewExerciseCommand: Exercise
deactivate Session

NewExerciseCommand -> Ui: printWithDivider("New exercise created!")
activate Ui
Ui - -> User: display confirmation
deactivate Ui
deactivate NewExerciseCommand

alt invalid input (missing or malformed parameters)
    FitnessONE -> Ui: printWithDivider("InvalidCommandException: input format incorrect")
else success
    FitnessONE -> StorageManager: save(coachController)
    activate StorageManager
    StorageManager - -> FitnessONE: success / IOException
    deactivate StorageManager

    alt save IOException
        FitnessONE -> Ui: printWithDivider("Failed to save data: <msg>")
    end
end

deactivate FitnessONE
@enduml

PlantUML version 1.2022.7(Mon Aug 22 17:01:30 UTC 2022)
(GPL source distribution)
Java Runtime: OpenJDK Runtime Environment
JVM: OpenJDK 64-Bit Server VM
Default Encoding: UTF-8
Language: en
Country: null
--></g></svg>