<?xml version="1.0" encoding="UTF-8" standalone="no"?><svg xmlns="http://www.w3.org/2000/svg" xmlns:xlink="http://www.w3.org/1999/xlink" contentStyleType="text/css" height="923px" preserveAspectRatio="none" style="width:1890px;height:923px;background:#FFFFFF;" version="1.1" viewBox="0 0 1890 923" width="1890px" zoomAndPan="magnify"><defs/><g><rect fill="none" height="26.2969" id="_title" style="stroke:none;stroke-width:1.0;" width="557" x="665.75" y="10"/><text fill="#000000" font-family="sans-serif" font-size="14" font-weight="bold" lengthAdjust="spacing" textLength="547" x="670.75" y="27.9951">UpdateSessionNotes Sequence Diagram (Parser passes parsed args)</text><rect fill="#FFFFFF" height="682.5313" style="stroke:#181818;stroke-width:1.0;" width="10" x="395" y="149.7266"/><rect fill="#FFFFFF" height="29.1328" style="stroke:#181818;stroke-width:1.0;" width="10" x="876" y="178.8594"/><rect fill="#FFFFFF" height="29.1328" style="stroke:#181818;stroke-width:1.0;" width="10" x="876" y="557.5859"/><rect fill="#FFFFFF" height="87.3984" style="stroke:#181818;stroke-width:1.0;" width="10" x="928.5" y="237.125"/><rect fill="#FFFFFF" height="29.1328" style="stroke:#181818;stroke-width:1.0;" width="10" x="1399.5" y="266.2578"/><rect fill="#FFFFFF" height="233.0625" style="stroke:#181818;stroke-width:1.0;" width="10" x="1399.5" y="353.6563"/><rect fill="#FFFFFF" height="29.1328" style="stroke:#181818;stroke-width:1.0;" width="10" x="1633.5" y="382.7891"/><rect fill="#FFFFFF" height="29.1328" style="stroke:#181818;stroke-width:1.0;" width="10" x="1633.5" y="441.0547"/><rect fill="#FFFFFF" height="29.1328" style="stroke:#181818;stroke-width:1.0;" width="10" x="1736.5" y="727.8594"/><rect fill="#FFFFFF" height="29.1328" style="stroke:#181818;stroke-width:1.0;" width="10" x="1845" y="499.3203"/><rect fill="none" height="223.5391" style="stroke:#000000;stroke-width:1.5;" width="1482.5" x="333" y="601.7188"/><rect fill="none" height="46.2656" style="stroke:#000000;stroke-width:1.5;" width="561.5" x="343" y="771.9922"/><line style="stroke:#181818;stroke-width:0.5;stroke-dasharray:5.0,5.0;" x1="24" x2="24" y1="118.5938" y2="842.2578"/><line style="stroke:#181818;stroke-width:0.5;stroke-dasharray:5.0,5.0;" x1="400" x2="400" y1="118.5938" y2="842.2578"/><line style="stroke:#181818;stroke-width:0.5;stroke-dasharray:5.0,5.0;" x1="880.5" x2="880.5" y1="118.5938" y2="842.2578"/><line style="stroke:#181818;stroke-width:0.5;stroke-dasharray:5.0,5.0;" x1="933.5" x2="933.5" y1="118.5938" y2="842.2578"/><line style="stroke:#181818;stroke-width:0.5;stroke-dasharray:5.0,5.0;" x1="1404" x2="1404" y1="118.5938" y2="842.2578"/><line style="stroke:#181818;stroke-width:0.5;stroke-dasharray:5.0,5.0;" x1="1638.5" x2="1638.5" y1="118.5938" y2="842.2578"/><line style="stroke:#181818;stroke-width:0.5;stroke-dasharray:5.0,5.0;" x1="1741.5" x2="1741.5" y1="118.5938" y2="842.2578"/><line style="stroke:#181818;stroke-width:0.5;stroke-dasharray:5.0,5.0;" x1="1849.5" x2="1849.5" y1="118.5938" y2="842.2578"/><text fill="#000000" font-family="sans-serif" font-size="14" lengthAdjust="spacing" textLength="32" x="5" y="115.292">User</text><ellipse cx="24" cy="50.7969" fill="#E2E2F0" rx="8" ry="8" style="stroke:#181818;stroke-width:0.5;"/><path d="M24,58.7969 L24,85.7969 M11,66.7969 L37,66.7969 M24,85.7969 L11,100.7969 M24,85.7969 L37,100.7969 " fill="none" style="stroke:#181818;stroke-width:0.5;"/><text fill="#000000" font-family="sans-serif" font-size="14" lengthAdjust="spacing" textLength="32" x="5" y="854.2529">User</text><ellipse cx="24" cy="866.0547" fill="#E2E2F0" rx="8" ry="8" style="stroke:#181818;stroke-width:0.5;"/><path d="M24,874.0547 L24,901.0547 M11,882.0547 L37,882.0547 M24,901.0547 L11,916.0547 M24,901.0547 L37,916.0547 " fill="none" style="stroke:#181818;stroke-width:0.5;"/><rect fill="#E2E2F0" height="30.2969" rx="2.5" ry="2.5" style="stroke:#181818;stroke-width:0.5;" width="94" x="353" y="87.2969"/><text fill="#000000" font-family="sans-serif" font-size="14" lengthAdjust="spacing" textLength="80" x="360" y="107.292">FitnessONE</text><rect fill="#E2E2F0" height="30.2969" rx="2.5" ry="2.5" style="stroke:#181818;stroke-width:0.5;" width="94" x="353" y="841.2578"/><text fill="#000000" font-family="sans-serif" font-size="14" lengthAdjust="spacing" textLength="80" x="360" y="861.2529">FitnessONE</text><rect fill="#E2E2F0" height="30.2969" rx="2.5" ry="2.5" style="stroke:#181818;stroke-width:0.5;" width="27" x="867.5" y="87.2969"/><text fill="#000000" font-family="sans-serif" font-size="14" lengthAdjust="spacing" textLength="13" x="874.5" y="107.292">Ui</text><rect fill="#E2E2F0" height="30.2969" rx="2.5" ry="2.5" style="stroke:#181818;stroke-width:0.5;" width="27" x="867.5" y="841.2578"/><text fill="#000000" font-family="sans-serif" font-size="14" lengthAdjust="spacing" textLength="13" x="874.5" y="861.2529">Ui</text><rect fill="#E2E2F0" height="30.2969" rx="2.5" ry="2.5" style="stroke:#181818;stroke-width:0.5;" width="58" x="904.5" y="87.2969"/><text fill="#000000" font-family="sans-serif" font-size="14" lengthAdjust="spacing" textLength="44" x="911.5" y="107.292">Parser</text><rect fill="#E2E2F0" height="30.2969" rx="2.5" ry="2.5" style="stroke:#181818;stroke-width:0.5;" width="58" x="904.5" y="841.2578"/><text fill="#000000" font-family="sans-serif" font-size="14" lengthAdjust="spacing" textLength="44" x="911.5" y="861.2529">Parser</text><rect fill="#E2E2F0" height="30.2969" rx="2.5" ry="2.5" style="stroke:#181818;stroke-width:0.5;" width="231" x="1289" y="87.2969"/><text fill="#000000" font-family="sans-serif" font-size="14" lengthAdjust="spacing" textLength="217" x="1296" y="107.292">UpdateSessionNotesCommand</text><rect fill="#E2E2F0" height="30.2969" rx="2.5" ry="2.5" style="stroke:#181818;stroke-width:0.5;" width="231" x="1289" y="841.2578"/><text fill="#000000" font-family="sans-serif" font-size="14" lengthAdjust="spacing" textLength="217" x="1296" y="861.2529">UpdateSessionNotesCommand</text><rect fill="#E2E2F0" height="30.2969" rx="2.5" ry="2.5" style="stroke:#181818;stroke-width:0.5;" width="58" x="1609.5" y="87.2969"/><text fill="#000000" font-family="sans-serif" font-size="14" lengthAdjust="spacing" textLength="44" x="1616.5" y="107.292">Coach</text><rect fill="#E2E2F0" height="30.2969" rx="2.5" ry="2.5" style="stroke:#181818;stroke-width:0.5;" width="58" x="1609.5" y="841.2578"/><text fill="#000000" font-family="sans-serif" font-size="14" lengthAdjust="spacing" textLength="44" x="1616.5" y="861.2529">Coach</text><rect fill="#E2E2F0" height="30.2969" rx="2.5" ry="2.5" style="stroke:#181818;stroke-width:0.5;" width="128" x="1677.5" y="87.2969"/><text fill="#000000" font-family="sans-serif" font-size="14" lengthAdjust="spacing" textLength="114" x="1684.5" y="107.292">StorageManager</text><rect fill="#E2E2F0" height="30.2969" rx="2.5" ry="2.5" style="stroke:#181818;stroke-width:0.5;" width="128" x="1677.5" y="841.2578"/><text fill="#000000" font-family="sans-serif" font-size="14" lengthAdjust="spacing" textLength="114" x="1684.5" y="861.2529">StorageManager</text><rect fill="#E2E2F0" height="30.2969" rx="2.5" ry="2.5" style="stroke:#181818;stroke-width:0.5;" width="69" x="1815.5" y="87.2969"/><text fill="#000000" font-family="sans-serif" font-size="14" lengthAdjust="spacing" textLength="55" x="1822.5" y="107.292">Session</text><rect fill="#E2E2F0" height="30.2969" rx="2.5" ry="2.5" style="stroke:#181818;stroke-width:0.5;" width="69" x="1815.5" y="841.2578"/><text fill="#000000" font-family="sans-serif" font-size="14" lengthAdjust="spacing" textLength="55" x="1822.5" y="861.2529">Session</text><rect fill="#FFFFFF" height="682.5313" style="stroke:#181818;stroke-width:1.0;" width="10" x="395" y="149.7266"/><rect fill="#FFFFFF" height="29.1328" style="stroke:#181818;stroke-width:1.0;" width="10" x="876" y="178.8594"/><rect fill="#FFFFFF" height="29.1328" style="stroke:#181818;stroke-width:1.0;" width="10" x="876" y="557.5859"/><rect fill="#FFFFFF" height="87.3984" style="stroke:#181818;stroke-width:1.0;" width="10" x="928.5" y="237.125"/><rect fill="#FFFFFF" height="29.1328" style="stroke:#181818;stroke-width:1.0;" width="10" x="1399.5" y="266.2578"/><rect fill="#FFFFFF" height="233.0625" style="stroke:#181818;stroke-width:1.0;" width="10" x="1399.5" y="353.6563"/><rect fill="#FFFFFF" height="29.1328" style="stroke:#181818;stroke-width:1.0;" width="10" x="1633.5" y="382.7891"/><rect fill="#FFFFFF" height="29.1328" style="stroke:#181818;stroke-width:1.0;" width="10" x="1633.5" y="441.0547"/><rect fill="#FFFFFF" height="29.1328" style="stroke:#181818;stroke-width:1.0;" width="10" x="1736.5" y="727.8594"/><rect fill="#FFFFFF" height="29.1328" style="stroke:#181818;stroke-width:1.0;" width="10" x="1845" y="499.3203"/><polygon fill="#181818" points="383,145.7266,393,149.7266,383,153.7266,387,149.7266" style="stroke:#181818;stroke-width:1.0;"/><line style="stroke:#181818;stroke-width:1.0;" x1="24" x2="389" y1="149.7266" y2="149.7266"/><text fill="#000000" font-family="sans-serif" font-size="13" lengthAdjust="spacing" textLength="352" x="31" y="144.6606">(user types "/updatesessionnote 0001 001 Chest-Day")</text><polygon fill="#181818" points="864,174.8594,874,178.8594,864,182.8594,868,178.8594" style="stroke:#181818;stroke-width:1.0;"/><line style="stroke:#181818;stroke-width:1.0;" x1="405" x2="870" y1="178.8594" y2="178.8594"/><text fill="#000000" font-family="sans-serif" font-size="13" lengthAdjust="spacing" textLength="106" x="412" y="173.7935">readCommand()</text><polygon fill="#181818" points="416,203.9922,406,207.9922,416,211.9922,412,207.9922" style="stroke:#181818;stroke-width:1.0;"/><line style="stroke:#181818;stroke-width:1.0;stroke-dasharray:2.0,2.0;" x1="410" x2="880" y1="207.9922" y2="207.9922"/><text fill="#000000" font-family="sans-serif" font-size="13" lengthAdjust="spacing" textLength="271" x="422" y="202.9263">"/updatesessionnote 0001 001 Chest-Day"</text><polygon fill="#181818" points="916.5,233.125,926.5,237.125,916.5,241.125,920.5,237.125" style="stroke:#181818;stroke-width:1.0;"/><line style="stroke:#181818;stroke-width:1.0;" x1="405" x2="922.5" y1="237.125" y2="237.125"/><text fill="#000000" font-family="sans-serif" font-size="13" lengthAdjust="spacing" textLength="317" x="412" y="232.0591">parse("/updatesessionnote 0001 001 Chest-Day")</text><polygon fill="#181818" points="1387.5,262.2578,1397.5,266.2578,1387.5,270.2578,1391.5,266.2578" style="stroke:#181818;stroke-width:1.0;"/><line style="stroke:#181818;stroke-width:1.0;" x1="938.5" x2="1393.5" y1="266.2578" y2="266.2578"/><text fill="#000000" font-family="sans-serif" font-size="13" lengthAdjust="spacing" textLength="442" x="945.5" y="261.1919">&lt;&lt;create&gt;&gt; UpdateSessionNotesCommand("0001 001 Chest-Day")</text><polygon fill="#181818" points="949.5,291.3906,939.5,295.3906,949.5,299.3906,945.5,295.3906" style="stroke:#181818;stroke-width:1.0;"/><line style="stroke:#181818;stroke-width:1.0;stroke-dasharray:2.0,2.0;" x1="943.5" x2="1403.5" y1="295.3906" y2="295.3906"/><text fill="#000000" font-family="sans-serif" font-size="13" lengthAdjust="spacing" textLength="76" x="955.5" y="290.3247">constructed</text><polygon fill="#181818" points="416,320.5234,406,324.5234,416,328.5234,412,324.5234" style="stroke:#181818;stroke-width:1.0;"/><line style="stroke:#181818;stroke-width:1.0;stroke-dasharray:2.0,2.0;" x1="410" x2="932.5" y1="324.5234" y2="324.5234"/><text fill="#000000" font-family="sans-serif" font-size="13" lengthAdjust="spacing" textLength="260" x="422" y="319.4575">UpdateSessionNotesCommand instance</text><polygon fill="#181818" points="1387.5,349.6563,1397.5,353.6563,1387.5,357.6563,1391.5,353.6563" style="stroke:#181818;stroke-width:1.0;"/><line style="stroke:#181818;stroke-width:1.0;" x1="405" x2="1393.5" y1="353.6563" y2="353.6563"/><text fill="#000000" font-family="sans-serif" font-size="13" lengthAdjust="spacing" textLength="196" x="412" y="348.5903">execute(coachController, view)</text><polygon fill="#181818" points="1621.5,378.7891,1631.5,382.7891,1621.5,386.7891,1625.5,382.7891" style="stroke:#181818;stroke-width:1.0;"/><line style="stroke:#181818;stroke-width:1.0;" x1="1409.5" x2="1627.5" y1="382.7891" y2="382.7891"/><text fill="#000000" font-family="sans-serif" font-size="13" lengthAdjust="spacing" textLength="155" x="1416.5" y="377.7231">accessAthleteID("0001")</text><polygon fill="#181818" points="1420.5,407.9219,1410.5,411.9219,1420.5,415.9219,1416.5,411.9219" style="stroke:#181818;stroke-width:1.0;"/><line style="stroke:#181818;stroke-width:1.0;stroke-dasharray:2.0,2.0;" x1="1414.5" x2="1637.5" y1="411.9219" y2="411.9219"/><text fill="#000000" font-family="sans-serif" font-size="13" lengthAdjust="spacing" textLength="104" x="1426.5" y="406.856">Athlete instance</text><polygon fill="#181818" points="1621.5,437.0547,1631.5,441.0547,1621.5,445.0547,1625.5,441.0547" style="stroke:#181818;stroke-width:1.0;"/><line style="stroke:#181818;stroke-width:1.0;" x1="1409.5" x2="1627.5" y1="441.0547" y2="441.0547"/><text fill="#000000" font-family="sans-serif" font-size="13" lengthAdjust="spacing" textLength="205" x="1416.5" y="435.9888">accessSessionID(Athlete, "001")</text><polygon fill="#181818" points="1420.5,466.1875,1410.5,470.1875,1420.5,474.1875,1416.5,470.1875" style="stroke:#181818;stroke-width:1.0;"/><line style="stroke:#181818;stroke-width:1.0;stroke-dasharray:2.0,2.0;" x1="1414.5" x2="1637.5" y1="470.1875" y2="470.1875"/><text fill="#000000" font-family="sans-serif" font-size="13" lengthAdjust="spacing" textLength="108" x="1426.5" y="465.1216">Session instance</text><polygon fill="#181818" points="1833,495.3203,1843,499.3203,1833,503.3203,1837,499.3203" style="stroke:#181818;stroke-width:1.0;"/><line style="stroke:#181818;stroke-width:1.0;" x1="1409.5" x2="1839" y1="499.3203" y2="499.3203"/><text fill="#000000" font-family="sans-serif" font-size="13" lengthAdjust="spacing" textLength="195" x="1416.5" y="494.2544">setTrainingNotes("Chest-Day")</text><polygon fill="#181818" points="1420.5,524.4531,1410.5,528.4531,1420.5,532.4531,1416.5,528.4531" style="stroke:#181818;stroke-width:1.0;"/><line style="stroke:#181818;stroke-width:1.0;stroke-dasharray:2.0,2.0;" x1="1414.5" x2="1849" y1="528.4531" y2="528.4531"/><text fill="#000000" font-family="sans-serif" font-size="13" lengthAdjust="spacing" textLength="80" x="1426.5" y="523.3872">confirmation</text><polygon fill="#181818" points="897,553.5859,887,557.5859,897,561.5859,893,557.5859" style="stroke:#181818;stroke-width:1.0;"/><line style="stroke:#181818;stroke-width:1.0;" x1="891" x2="1398.5" y1="557.5859" y2="557.5859"/><text fill="#000000" font-family="sans-serif" font-size="13" lengthAdjust="spacing" textLength="321" x="903" y="552.52">printWithDivider("Successfully updated Athlete ...")</text><polygon fill="#181818" points="35,582.7188,25,586.7188,35,590.7188,31,586.7188" style="stroke:#181818;stroke-width:1.0;"/><line style="stroke:#181818;stroke-width:1.0;stroke-dasharray:2.0,2.0;" x1="29" x2="880" y1="586.7188" y2="586.7188"/><text fill="#000000" font-family="sans-serif" font-size="13" lengthAdjust="spacing" textLength="128" x="41" y="581.6528">display confirmation</text><path d="M333,601.7188 L397,601.7188 L397,608.8516 L387,618.8516 L333,618.8516 L333,601.7188 " fill="#EEEEEE" style="stroke:#000000;stroke-width:1.5;"/><rect fill="none" height="223.5391" style="stroke:#000000;stroke-width:1.5;" width="1482.5" x="333" y="601.7188"/><text fill="#000000" font-family="sans-serif" font-size="13" font-weight="bold" lengthAdjust="spacing" textLength="19" x="348" y="614.7856">alt</text><text fill="#000000" font-family="sans-serif" font-size="11" font-weight="bold" lengthAdjust="spacing" textLength="340" x="412" y="613.9292">[invalid input (e.g., missing Athlete ID or Session ID)]</text><polygon fill="#181818" points="869,635.9844,879,639.9844,869,643.9844,873,639.9844" style="stroke:#181818;stroke-width:1.0;"/><line style="stroke:#181818;stroke-width:1.0;" x1="405" x2="875" y1="639.9844" y2="639.9844"/><text fill="#000000" font-family="sans-serif" font-size="13" lengthAdjust="spacing" textLength="309" x="412" y="634.9185">printWithDivider("InvalidCommandException: ...")</text><line style="stroke:#000000;stroke-width:1.0;stroke-dasharray:2.0,2.0;" x1="333" x2="1815.5" y1="648.9844" y2="648.9844"/><text fill="#000000" font-family="sans-serif" font-size="11" font-weight="bold" lengthAdjust="spacing" textLength="175" x="338" y="659.1948">[athlete/session not found]</text><polygon fill="#181818" points="869,679.9219,879,683.9219,869,687.9219,873,683.9219" style="stroke:#181818;stroke-width:1.0;"/><line style="stroke:#181818;stroke-width:1.0;" x1="405" x2="875" y1="683.9219" y2="683.9219"/><text fill="#000000" font-family="sans-serif" font-size="13" lengthAdjust="spacing" textLength="452" x="412" y="678.856">printWithDivider("InvalidAthleteException / InvalidSessionException: ...")</text><line style="stroke:#000000;stroke-width:1.0;stroke-dasharray:2.0,2.0;" x1="333" x2="1815.5" y1="692.9219" y2="692.9219"/><text fill="#000000" font-family="sans-serif" font-size="11" font-weight="bold" lengthAdjust="spacing" textLength="61" x="338" y="703.1323">[success]</text><polygon fill="#181818" points="1724.5,723.8594,1734.5,727.8594,1724.5,731.8594,1728.5,727.8594" style="stroke:#181818;stroke-width:1.0;"/><line style="stroke:#181818;stroke-width:1.0;" x1="405" x2="1730.5" y1="727.8594" y2="727.8594"/><text fill="#000000" font-family="sans-serif" font-size="13" lengthAdjust="spacing" textLength="140" x="412" y="722.7935">save(coachController)</text><polygon fill="#181818" points="416,752.9922,406,756.9922,416,760.9922,412,756.9922" style="stroke:#181818;stroke-width:1.0;"/><line style="stroke:#181818;stroke-width:1.0;stroke-dasharray:2.0,2.0;" x1="410" x2="1740.5" y1="756.9922" y2="756.9922"/><text fill="#000000" font-family="sans-serif" font-size="13" lengthAdjust="spacing" textLength="138" x="422" y="751.9263">success / IOException</text><path d="M343,771.9922 L407,771.9922 L407,779.125 L397,789.125 L343,789.125 L343,771.9922 " fill="#EEEEEE" style="stroke:#000000;stroke-width:1.5;"/><rect fill="none" height="46.2656" style="stroke:#000000;stroke-width:1.5;" width="561.5" x="343" y="771.9922"/><text fill="#000000" font-family="sans-serif" font-size="13" font-weight="bold" lengthAdjust="spacing" textLength="19" x="358" y="785.0591">alt</text><text fill="#000000" font-family="sans-serif" font-size="11" font-weight="bold" lengthAdjust="spacing" textLength="121" x="422" y="784.2026">[save IOException]</text><polygon fill="#181818" points="869,806.2578,879,810.2578,869,814.2578,873,810.2578" style="stroke:#181818;stroke-width:1.0;"/><line style="stroke:#181818;stroke-width:1.0;" x1="405" x2="875" y1="810.2578" y2="810.2578"/><text fill="#000000" font-family="sans-serif" font-size="13" lengthAdjust="spacing" textLength="299" x="412" y="805.1919">printWithDivider("Failed to save data: &lt;msg&gt;")</text><!--MD5=[f2f11575218eec91538756bbaec4e421]
@startuml
title UpdateSessionNotes Sequence Diagram (Parser passes parsed args)

actor User
participant FitnessONE
participant Ui
participant Parser
participant UpdateSessionNotesCommand
participant Coach
participant StorageManager

User -> FitnessONE: (user types "/updatesessionnote 0001 001 Chest-Day")
activate FitnessONE

FitnessONE -> Ui: readCommand()
activate Ui
Ui - -> FitnessONE: "/updatesessionnote 0001 001 Chest-Day"
deactivate Ui

FitnessONE -> Parser: parse("/updatesessionnote 0001 001 Chest-Day")
activate Parser
' Parser parses arguments first, then constructs command with parsed params
Parser -> UpdateSessionNotesCommand: <<create>> UpdateSessionNotesCommand("0001 001 Chest-Day")
activate UpdateSessionNotesCommand
UpdateSessionNotesCommand - -> Parser: constructed
deactivate UpdateSessionNotesCommand
Parser - -> FitnessONE: UpdateSessionNotesCommand instance
deactivate Parser

FitnessONE -> UpdateSessionNotesCommand: execute(coachController, view)
activate UpdateSessionNotesCommand
UpdateSessionNotesCommand -> Coach: accessAthleteID("0001")
activate Coach
Coach - -> UpdateSessionNotesCommand: Athlete instance
deactivate Coach

UpdateSessionNotesCommand -> Coach: accessSessionID(Athlete, "001")
activate Coach
Coach - -> UpdateSessionNotesCommand: Session instance
deactivate Coach

UpdateSessionNotesCommand -> Session: setTrainingNotes("Chest-Day")
activate Session
Session - -> UpdateSessionNotesCommand: confirmation
deactivate Session

UpdateSessionNotesCommand -> Ui: printWithDivider("Successfully updated Athlete ...")
activate Ui
Ui - -> User: display confirmation
deactivate Ui
deactivate UpdateSessionNotesCommand

alt invalid input (e.g., missing Athlete ID or Session ID)
    FitnessONE -> Ui: printWithDivider("InvalidCommandException: ...")
else athlete/session not found
    FitnessONE -> Ui: printWithDivider("InvalidAthleteException / InvalidSessionException: ...")
else success
    FitnessONE -> StorageManager: save(coachController)
    activate StorageManager
    StorageManager - -> FitnessONE: success / IOException
    deactivate StorageManager

    alt save IOException
        FitnessONE -> Ui: printWithDivider("Failed to save data: <msg>")
    end
end

deactivate FitnessONE
@enduml

@startuml
title UpdateSessionNotes Sequence Diagram (Parser passes parsed args)

actor User
participant FitnessONE
participant Ui
participant Parser
participant UpdateSessionNotesCommand
participant Coach
participant StorageManager

User -> FitnessONE: (user types "/updatesessionnote 0001 001 Chest-Day")
activate FitnessONE

FitnessONE -> Ui: readCommand()
activate Ui
Ui - -> FitnessONE: "/updatesessionnote 0001 001 Chest-Day"
deactivate Ui

FitnessONE -> Parser: parse("/updatesessionnote 0001 001 Chest-Day")
activate Parser
Parser -> UpdateSessionNotesCommand: <<create>> UpdateSessionNotesCommand("0001 001 Chest-Day")
activate UpdateSessionNotesCommand
UpdateSessionNotesCommand - -> Parser: constructed
deactivate UpdateSessionNotesCommand
Parser - -> FitnessONE: UpdateSessionNotesCommand instance
deactivate Parser

FitnessONE -> UpdateSessionNotesCommand: execute(coachController, view)
activate UpdateSessionNotesCommand
UpdateSessionNotesCommand -> Coach: accessAthleteID("0001")
activate Coach
Coach - -> UpdateSessionNotesCommand: Athlete instance
deactivate Coach

UpdateSessionNotesCommand -> Coach: accessSessionID(Athlete, "001")
activate Coach
Coach - -> UpdateSessionNotesCommand: Session instance
deactivate Coach

UpdateSessionNotesCommand -> Session: setTrainingNotes("Chest-Day")
activate Session
Session - -> UpdateSessionNotesCommand: confirmation
deactivate Session

UpdateSessionNotesCommand -> Ui: printWithDivider("Successfully updated Athlete ...")
activate Ui
Ui - -> User: display confirmation
deactivate Ui
deactivate UpdateSessionNotesCommand

alt invalid input (e.g., missing Athlete ID or Session ID)
    FitnessONE -> Ui: printWithDivider("InvalidCommandException: ...")
else athlete/session not found
    FitnessONE -> Ui: printWithDivider("InvalidAthleteException / InvalidSessionException: ...")
else success
    FitnessONE -> StorageManager: save(coachController)
    activate StorageManager
    StorageManager - -> FitnessONE: success / IOException
    deactivate StorageManager

    alt save IOException
        FitnessONE -> Ui: printWithDivider("Failed to save data: <msg>")
    end
end

deactivate FitnessONE
@enduml

PlantUML version 1.2022.7(Mon Aug 22 17:01:30 UTC 2022)
(GPL source distribution)
Java Runtime: OpenJDK Runtime Environment
JVM: OpenJDK 64-Bit Server VM
Default Encoding: UTF-8
Language: en
Country: null
--></g></svg>