<?xml version="1.0" encoding="UTF-8" standalone="no"?><svg xmlns="http://www.w3.org/2000/svg" xmlns:xlink="http://www.w3.org/1999/xlink" contentStyleType="text/css" height="745px" preserveAspectRatio="none" style="width:1495px;height:745px;background:#FFFFFF;" version="1.1" viewBox="0 0 1495 745" width="1495px" zoomAndPan="magnify"><defs/><g><rect fill="none" height="26.2969" id="_title" style="stroke:none;stroke-width:1.0;" width="499" x="497.25" y="10"/><text fill="#000000" font-family="sans-serif" font-size="14" font-weight="bold" lengthAdjust="spacing" textLength="489" x="502.25" y="27.9951">ViewExercise Sequence Diagram (Parser passes parsed args)</text><rect fill="#FFFFFF" height="505.2578" style="stroke:#181818;stroke-width:1.0;" width="10" x="289" y="149.7266"/><rect fill="#FFFFFF" height="29.1328" style="stroke:#181818;stroke-width:1.0;" width="10" x="717" y="178.8594"/><rect fill="#FFFFFF" height="29.1328" style="stroke:#181818;stroke-width:1.0;" width="10" x="717" y="557.5859"/><rect fill="#FFFFFF" height="87.3984" style="stroke:#181818;stroke-width:1.0;" width="10" x="769.5" y="237.125"/><rect fill="#FFFFFF" height="29.1328" style="stroke:#181818;stroke-width:1.0;" width="10" x="1116.5" y="266.2578"/><rect fill="#FFFFFF" height="233.0625" style="stroke:#181818;stroke-width:1.0;" width="10" x="1116.5" y="353.6563"/><rect fill="#FFFFFF" height="29.1328" style="stroke:#181818;stroke-width:1.0;" width="10" x="1376.5" y="382.7891"/><rect fill="#FFFFFF" height="29.1328" style="stroke:#181818;stroke-width:1.0;" width="10" x="1376.5" y="441.0547"/><rect fill="#FFFFFF" height="29.1328" style="stroke:#181818;stroke-width:1.0;" width="10" x="1450" y="499.3203"/><rect fill="none" height="46.2656" style="stroke:#000000;stroke-width:1.5;" width="508.5" x="237" y="601.7188"/><line style="stroke:#181818;stroke-width:0.5;stroke-dasharray:5.0,5.0;" x1="24" x2="24" y1="118.5938" y2="664.9844"/><line style="stroke:#181818;stroke-width:0.5;stroke-dasharray:5.0,5.0;" x1="294" x2="294" y1="118.5938" y2="664.9844"/><line style="stroke:#181818;stroke-width:0.5;stroke-dasharray:5.0,5.0;" x1="721.5" x2="721.5" y1="118.5938" y2="664.9844"/><line style="stroke:#181818;stroke-width:0.5;stroke-dasharray:5.0,5.0;" x1="774.5" x2="774.5" y1="118.5938" y2="664.9844"/><line style="stroke:#181818;stroke-width:0.5;stroke-dasharray:5.0,5.0;" x1="1121" x2="1121" y1="118.5938" y2="664.9844"/><line style="stroke:#181818;stroke-width:0.5;stroke-dasharray:5.0,5.0;" x1="1381.5" x2="1381.5" y1="118.5938" y2="664.9844"/><line style="stroke:#181818;stroke-width:0.5;stroke-dasharray:5.0,5.0;" x1="1454.5" x2="1454.5" y1="118.5938" y2="664.9844"/><text fill="#000000" font-family="sans-serif" font-size="14" lengthAdjust="spacing" textLength="32" x="5" y="115.292">User</text><ellipse cx="24" cy="50.7969" fill="#E2E2F0" rx="8" ry="8" style="stroke:#181818;stroke-width:0.5;"/><path d="M24,58.7969 L24,85.7969 M11,66.7969 L37,66.7969 M24,85.7969 L11,100.7969 M24,85.7969 L37,100.7969 " fill="none" style="stroke:#181818;stroke-width:0.5;"/><text fill="#000000" font-family="sans-serif" font-size="14" lengthAdjust="spacing" textLength="32" x="5" y="676.9795">User</text><ellipse cx="24" cy="688.7813" fill="#E2E2F0" rx="8" ry="8" style="stroke:#181818;stroke-width:0.5;"/><path d="M24,696.7813 L24,723.7813 M11,704.7813 L37,704.7813 M24,723.7813 L11,738.7813 M24,723.7813 L37,738.7813 " fill="none" style="stroke:#181818;stroke-width:0.5;"/><rect fill="#E2E2F0" height="30.2969" rx="2.5" ry="2.5" style="stroke:#181818;stroke-width:0.5;" width="94" x="247" y="87.2969"/><text fill="#000000" font-family="sans-serif" font-size="14" lengthAdjust="spacing" textLength="80" x="254" y="107.292">FitnessONE</text><rect fill="#E2E2F0" height="30.2969" rx="2.5" ry="2.5" style="stroke:#181818;stroke-width:0.5;" width="94" x="247" y="663.9844"/><text fill="#000000" font-family="sans-serif" font-size="14" lengthAdjust="spacing" textLength="80" x="254" y="683.9795">FitnessONE</text><rect fill="#E2E2F0" height="30.2969" rx="2.5" ry="2.5" style="stroke:#181818;stroke-width:0.5;" width="27" x="708.5" y="87.2969"/><text fill="#000000" font-family="sans-serif" font-size="14" lengthAdjust="spacing" textLength="13" x="715.5" y="107.292">Ui</text><rect fill="#E2E2F0" height="30.2969" rx="2.5" ry="2.5" style="stroke:#181818;stroke-width:0.5;" width="27" x="708.5" y="663.9844"/><text fill="#000000" font-family="sans-serif" font-size="14" lengthAdjust="spacing" textLength="13" x="715.5" y="683.9795">Ui</text><rect fill="#E2E2F0" height="30.2969" rx="2.5" ry="2.5" style="stroke:#181818;stroke-width:0.5;" width="58" x="745.5" y="87.2969"/><text fill="#000000" font-family="sans-serif" font-size="14" lengthAdjust="spacing" textLength="44" x="752.5" y="107.292">Parser</text><rect fill="#E2E2F0" height="30.2969" rx="2.5" ry="2.5" style="stroke:#181818;stroke-width:0.5;" width="58" x="745.5" y="663.9844"/><text fill="#000000" font-family="sans-serif" font-size="14" lengthAdjust="spacing" textLength="44" x="752.5" y="683.9795">Parser</text><rect fill="#E2E2F0" height="30.2969" rx="2.5" ry="2.5" style="stroke:#181818;stroke-width:0.5;" width="175" x="1034" y="87.2969"/><text fill="#000000" font-family="sans-serif" font-size="14" lengthAdjust="spacing" textLength="161" x="1041" y="107.292">ViewExerciseCommand</text><rect fill="#E2E2F0" height="30.2969" rx="2.5" ry="2.5" style="stroke:#181818;stroke-width:0.5;" width="175" x="1034" y="663.9844"/><text fill="#000000" font-family="sans-serif" font-size="14" lengthAdjust="spacing" textLength="161" x="1041" y="683.9795">ViewExerciseCommand</text><rect fill="#E2E2F0" height="30.2969" rx="2.5" ry="2.5" style="stroke:#181818;stroke-width:0.5;" width="58" x="1352.5" y="87.2969"/><text fill="#000000" font-family="sans-serif" font-size="14" lengthAdjust="spacing" textLength="44" x="1359.5" y="107.292">Coach</text><rect fill="#E2E2F0" height="30.2969" rx="2.5" ry="2.5" style="stroke:#181818;stroke-width:0.5;" width="58" x="1352.5" y="663.9844"/><text fill="#000000" font-family="sans-serif" font-size="14" lengthAdjust="spacing" textLength="44" x="1359.5" y="683.9795">Coach</text><rect fill="#E2E2F0" height="30.2969" rx="2.5" ry="2.5" style="stroke:#181818;stroke-width:0.5;" width="69" x="1420.5" y="87.2969"/><text fill="#000000" font-family="sans-serif" font-size="14" lengthAdjust="spacing" textLength="55" x="1427.5" y="107.292">Session</text><rect fill="#E2E2F0" height="30.2969" rx="2.5" ry="2.5" style="stroke:#181818;stroke-width:0.5;" width="69" x="1420.5" y="663.9844"/><text fill="#000000" font-family="sans-serif" font-size="14" lengthAdjust="spacing" textLength="55" x="1427.5" y="683.9795">Session</text><rect fill="#FFFFFF" height="505.2578" style="stroke:#181818;stroke-width:1.0;" width="10" x="289" y="149.7266"/><rect fill="#FFFFFF" height="29.1328" style="stroke:#181818;stroke-width:1.0;" width="10" x="717" y="178.8594"/><rect fill="#FFFFFF" height="29.1328" style="stroke:#181818;stroke-width:1.0;" width="10" x="717" y="557.5859"/><rect fill="#FFFFFF" height="87.3984" style="stroke:#181818;stroke-width:1.0;" width="10" x="769.5" y="237.125"/><rect fill="#FFFFFF" height="29.1328" style="stroke:#181818;stroke-width:1.0;" width="10" x="1116.5" y="266.2578"/><rect fill="#FFFFFF" height="233.0625" style="stroke:#181818;stroke-width:1.0;" width="10" x="1116.5" y="353.6563"/><rect fill="#FFFFFF" height="29.1328" style="stroke:#181818;stroke-width:1.0;" width="10" x="1376.5" y="382.7891"/><rect fill="#FFFFFF" height="29.1328" style="stroke:#181818;stroke-width:1.0;" width="10" x="1376.5" y="441.0547"/><rect fill="#FFFFFF" height="29.1328" style="stroke:#181818;stroke-width:1.0;" width="10" x="1450" y="499.3203"/><polygon fill="#181818" points="277,145.7266,287,149.7266,277,153.7266,281,149.7266" style="stroke:#181818;stroke-width:1.0;"/><line style="stroke:#181818;stroke-width:1.0;" x1="24" x2="283" y1="149.7266" y2="149.7266"/><text fill="#000000" font-family="sans-serif" font-size="13" lengthAdjust="spacing" textLength="246" x="31" y="144.6606">(user types "/viewexercises 0001 001")</text><polygon fill="#181818" points="705,174.8594,715,178.8594,705,182.8594,709,178.8594" style="stroke:#181818;stroke-width:1.0;"/><line style="stroke:#181818;stroke-width:1.0;" x1="299" x2="711" y1="178.8594" y2="178.8594"/><text fill="#000000" font-family="sans-serif" font-size="13" lengthAdjust="spacing" textLength="106" x="306" y="173.7935">readCommand()</text><polygon fill="#181818" points="310,203.9922,300,207.9922,310,211.9922,306,207.9922" style="stroke:#181818;stroke-width:1.0;"/><line style="stroke:#181818;stroke-width:1.0;stroke-dasharray:2.0,2.0;" x1="304" x2="721" y1="207.9922" y2="207.9922"/><text fill="#000000" font-family="sans-serif" font-size="13" lengthAdjust="spacing" textLength="165" x="316" y="202.9263">"/viewexercises 0001 001"</text><polygon fill="#181818" points="757.5,233.125,767.5,237.125,757.5,241.125,761.5,237.125" style="stroke:#181818;stroke-width:1.0;"/><line style="stroke:#181818;stroke-width:1.0;" x1="299" x2="763.5" y1="237.125" y2="237.125"/><text fill="#000000" font-family="sans-serif" font-size="13" lengthAdjust="spacing" textLength="211" x="306" y="232.0591">parse("/viewexercises 0001 001")</text><polygon fill="#181818" points="1104.5,262.2578,1114.5,266.2578,1104.5,270.2578,1108.5,266.2578" style="stroke:#181818;stroke-width:1.0;"/><line style="stroke:#181818;stroke-width:1.0;" x1="779.5" x2="1110.5" y1="266.2578" y2="266.2578"/><text fill="#000000" font-family="sans-serif" font-size="13" lengthAdjust="spacing" textLength="318" x="786.5" y="261.1919">&lt;&lt;create&gt;&gt; ViewExerciseCommand("0001 001")</text><polygon fill="#181818" points="790.5,291.3906,780.5,295.3906,790.5,299.3906,786.5,295.3906" style="stroke:#181818;stroke-width:1.0;"/><line style="stroke:#181818;stroke-width:1.0;stroke-dasharray:2.0,2.0;" x1="784.5" x2="1120.5" y1="295.3906" y2="295.3906"/><text fill="#000000" font-family="sans-serif" font-size="13" lengthAdjust="spacing" textLength="76" x="796.5" y="290.3247">constructed</text><polygon fill="#181818" points="310,320.5234,300,324.5234,310,328.5234,306,324.5234" style="stroke:#181818;stroke-width:1.0;"/><line style="stroke:#181818;stroke-width:1.0;stroke-dasharray:2.0,2.0;" x1="304" x2="773.5" y1="324.5234" y2="324.5234"/><text fill="#000000" font-family="sans-serif" font-size="13" lengthAdjust="spacing" textLength="207" x="316" y="319.4575">ViewExerciseCommand instance</text><polygon fill="#181818" points="1104.5,349.6563,1114.5,353.6563,1104.5,357.6563,1108.5,353.6563" style="stroke:#181818;stroke-width:1.0;"/><line style="stroke:#181818;stroke-width:1.0;" x1="299" x2="1110.5" y1="353.6563" y2="353.6563"/><text fill="#000000" font-family="sans-serif" font-size="13" lengthAdjust="spacing" textLength="196" x="306" y="348.5903">execute(coachController, view)</text><polygon fill="#181818" points="1364.5,378.7891,1374.5,382.7891,1364.5,386.7891,1368.5,382.7891" style="stroke:#181818;stroke-width:1.0;"/><line style="stroke:#181818;stroke-width:1.0;" x1="1126.5" x2="1370.5" y1="382.7891" y2="382.7891"/><text fill="#000000" font-family="sans-serif" font-size="13" lengthAdjust="spacing" textLength="171" x="1133.5" y="377.7231">accessAthleteID(athleteID)</text><polygon fill="#181818" points="1137.5,407.9219,1127.5,411.9219,1137.5,415.9219,1133.5,411.9219" style="stroke:#181818;stroke-width:1.0;"/><line style="stroke:#181818;stroke-width:1.0;stroke-dasharray:2.0,2.0;" x1="1131.5" x2="1380.5" y1="411.9219" y2="411.9219"/><text fill="#000000" font-family="sans-serif" font-size="13" lengthAdjust="spacing" textLength="104" x="1143.5" y="406.856">Athlete instance</text><polygon fill="#181818" points="1364.5,437.0547,1374.5,441.0547,1364.5,445.0547,1368.5,441.0547" style="stroke:#181818;stroke-width:1.0;"/><line style="stroke:#181818;stroke-width:1.0;" x1="1126.5" x2="1370.5" y1="441.0547" y2="441.0547"/><text fill="#000000" font-family="sans-serif" font-size="13" lengthAdjust="spacing" textLength="231" x="1133.5" y="435.9888">accessSessionID(athlete, sessionID)</text><polygon fill="#181818" points="1137.5,466.1875,1127.5,470.1875,1137.5,474.1875,1133.5,470.1875" style="stroke:#181818;stroke-width:1.0;"/><line style="stroke:#181818;stroke-width:1.0;stroke-dasharray:2.0,2.0;" x1="1131.5" x2="1380.5" y1="470.1875" y2="470.1875"/><text fill="#000000" font-family="sans-serif" font-size="13" lengthAdjust="spacing" textLength="108" x="1143.5" y="465.1216">Session instance</text><polygon fill="#181818" points="1438,495.3203,1448,499.3203,1438,503.3203,1442,499.3203" style="stroke:#181818;stroke-width:1.0;"/><line style="stroke:#181818;stroke-width:1.0;" x1="1126.5" x2="1444" y1="499.3203" y2="499.3203"/><text fill="#000000" font-family="sans-serif" font-size="13" lengthAdjust="spacing" textLength="91" x="1133.5" y="494.2544">getExercises()</text><polygon fill="#181818" points="1137.5,524.4531,1127.5,528.4531,1137.5,532.4531,1133.5,528.4531" style="stroke:#181818;stroke-width:1.0;"/><line style="stroke:#181818;stroke-width:1.0;stroke-dasharray:2.0,2.0;" x1="1131.5" x2="1454" y1="528.4531" y2="528.4531"/><text fill="#000000" font-family="sans-serif" font-size="13" lengthAdjust="spacing" textLength="75" x="1143.5" y="523.3872">Exercise list</text><polygon fill="#181818" points="738,553.5859,728,557.5859,738,561.5859,734,557.5859" style="stroke:#181818;stroke-width:1.0;"/><line style="stroke:#181818;stroke-width:1.0;" x1="732" x2="1115.5" y1="557.5859" y2="557.5859"/><text fill="#000000" font-family="sans-serif" font-size="13" lengthAdjust="spacing" textLength="219" x="744" y="552.52">print session and exercises details</text><polygon fill="#181818" points="35,582.7188,25,586.7188,35,590.7188,31,586.7188" style="stroke:#181818;stroke-width:1.0;"/><line style="stroke:#181818;stroke-width:1.0;stroke-dasharray:2.0,2.0;" x1="29" x2="721" y1="586.7188" y2="586.7188"/><text fill="#000000" font-family="sans-serif" font-size="13" lengthAdjust="spacing" textLength="128" x="41" y="581.6528">display confirmation</text><path d="M237,601.7188 L301,601.7188 L301,608.8516 L291,618.8516 L237,618.8516 L237,601.7188 " fill="#EEEEEE" style="stroke:#000000;stroke-width:1.5;"/><rect fill="none" height="46.2656" style="stroke:#000000;stroke-width:1.5;" width="508.5" x="237" y="601.7188"/><text fill="#000000" font-family="sans-serif" font-size="13" font-weight="bold" lengthAdjust="spacing" textLength="19" x="252" y="614.7856">alt</text><text fill="#000000" font-family="sans-serif" font-size="11" font-weight="bold" lengthAdjust="spacing" textLength="245" x="316" y="613.9292">[invalid input (wrong number of args)]</text><polygon fill="#181818" points="710,635.9844,720,639.9844,710,643.9844,714,639.9844" style="stroke:#181818;stroke-width:1.0;"/><line style="stroke:#181818;stroke-width:1.0;" x1="299" x2="716" y1="639.9844" y2="639.9844"/><text fill="#000000" font-family="sans-serif" font-size="13" lengthAdjust="spacing" textLength="399" x="306" y="634.9185">printWithDivider("InvalidCommandException: usage message")</text><!--MD5=[1a1030202a3b3b329572812020f6906e]
@startuml
title ViewExercise Sequence Diagram (Parser passes parsed args)

actor User
participant FitnessONE
participant Ui
participant Parser
participant ViewExerciseCommand
participant Coach

User -> FitnessONE: (user types "/viewexercises 0001 001")
activate FitnessONE

FitnessONE -> Ui: readCommand()
activate Ui
Ui - -> FitnessONE: "/viewexercises 0001 001"
deactivate Ui

FitnessONE -> Parser: parse("/viewexercises 0001 001")
activate Parser
' Parser parses arguments first, then constructs command with parsed params
Parser -> ViewExerciseCommand: <<create>> ViewExerciseCommand("0001 001")
activate ViewExerciseCommand
ViewExerciseCommand - -> Parser: constructed
deactivate ViewExerciseCommand
Parser - -> FitnessONE: ViewExerciseCommand instance
deactivate Parser

FitnessONE -> ViewExerciseCommand: execute(coachController, view)
activate ViewExerciseCommand
ViewExerciseCommand -> Coach: accessAthleteID(athleteID)
activate Coach
Coach - -> ViewExerciseCommand: Athlete instance
deactivate Coach
ViewExerciseCommand -> Coach: accessSessionID(athlete, sessionID)
activate Coach
Coach - -> ViewExerciseCommand: Session instance
deactivate Coach
ViewExerciseCommand -> Session: getExercises()
activate Session
Session - -> ViewExerciseCommand: Exercise list
deactivate Session

ViewExerciseCommand -> Ui: print session and exercises details
activate Ui
Ui - -> User: display confirmation
deactivate Ui
deactivate ViewExerciseCommand

alt invalid input (wrong number of args)
    FitnessONE -> Ui: printWithDivider("InvalidCommandException: usage message")
end

deactivate FitnessONE
@enduml

@startuml
title ViewExercise Sequence Diagram (Parser passes parsed args)

actor User
participant FitnessONE
participant Ui
participant Parser
participant ViewExerciseCommand
participant Coach

User -> FitnessONE: (user types "/viewexercises 0001 001")
activate FitnessONE

FitnessONE -> Ui: readCommand()
activate Ui
Ui - -> FitnessONE: "/viewexercises 0001 001"
deactivate Ui

FitnessONE -> Parser: parse("/viewexercises 0001 001")
activate Parser
Parser -> ViewExerciseCommand: <<create>> ViewExerciseCommand("0001 001")
activate ViewExerciseCommand
ViewExerciseCommand - -> Parser: constructed
deactivate ViewExerciseCommand
Parser - -> FitnessONE: ViewExerciseCommand instance
deactivate Parser

FitnessONE -> ViewExerciseCommand: execute(coachController, view)
activate ViewExerciseCommand
ViewExerciseCommand -> Coach: accessAthleteID(athleteID)
activate Coach
Coach - -> ViewExerciseCommand: Athlete instance
deactivate Coach
ViewExerciseCommand -> Coach: accessSessionID(athlete, sessionID)
activate Coach
Coach - -> ViewExerciseCommand: Session instance
deactivate Coach
ViewExerciseCommand -> Session: getExercises()
activate Session
Session - -> ViewExerciseCommand: Exercise list
deactivate Session

ViewExerciseCommand -> Ui: print session and exercises details
activate Ui
Ui - -> User: display confirmation
deactivate Ui
deactivate ViewExerciseCommand

alt invalid input (wrong number of args)
    FitnessONE -> Ui: printWithDivider("InvalidCommandException: usage message")
end

deactivate FitnessONE
@enduml

PlantUML version 1.2022.7(Mon Aug 22 17:01:30 UTC 2022)
(GPL source distribution)
Java Runtime: OpenJDK Runtime Environment
JVM: OpenJDK 64-Bit Server VM
Default Encoding: UTF-8
Language: en
Country: null
--></g></svg>