<?xml version="1.0" encoding="UTF-8" standalone="no"?><svg xmlns="http://www.w3.org/2000/svg" xmlns:xlink="http://www.w3.org/1999/xlink" contentStyleType="text/css" height="745px" preserveAspectRatio="none" style="width:1210px;height:745px;background:#FFFFFF;" version="1.1" viewBox="0 0 1210 745" width="1210px" zoomAndPan="magnify"><defs/><g><rect fill="none" height="26.2969" id="_title" style="stroke:none;stroke-width:1.0;" width="503" x="355" y="10"/><text fill="#000000" font-family="sans-serif" font-size="14" font-weight="bold" lengthAdjust="spacing" textLength="493" x="360" y="27.9951">ViewSessions Sequence Diagram (Parser passes parsed args)</text><rect fill="#FFFFFF" height="497.2578" style="stroke:#181818;stroke-width:1.0;" width="10" x="256" y="149.7266"/><rect fill="#FFFFFF" height="29.1328" style="stroke:#181818;stroke-width:1.0;" width="10" x="422" y="178.8594"/><rect fill="#FFFFFF" height="29.1328" style="stroke:#181818;stroke-width:1.0;" width="10" x="422" y="617.8516"/><rect fill="#FFFFFF" height="87.3984" style="stroke:#181818;stroke-width:1.0;" width="10" x="501" y="237.125"/><rect fill="#FFFFFF" height="29.1328" style="stroke:#181818;stroke-width:1.0;" width="10" x="824" y="266.2578"/><rect fill="#FFFFFF" height="293.3281" style="stroke:#181818;stroke-width:1.0;" width="10" x="824" y="353.6563"/><rect fill="#FFFFFF" height="29.1328" style="stroke:#181818;stroke-width:1.0;" width="10" x="1008" y="382.7891"/><rect fill="#FFFFFF" height="29.1328" style="stroke:#181818;stroke-width:1.0;" width="10" x="1078.5" y="441.0547"/><rect fill="#FFFFFF" height="29.1328" style="stroke:#181818;stroke-width:1.0;" width="10" x="1154.5" y="523.4531"/><rect fill="none" height="104.5313" style="stroke:#000000;stroke-width:1.5;" width="800.5" x="403.5" y="485.1875"/><line style="stroke:#181818;stroke-width:0.5;stroke-dasharray:5.0,5.0;" x1="24" x2="24" y1="118.5938" y2="664.9844"/><line style="stroke:#181818;stroke-width:0.5;stroke-dasharray:5.0,5.0;" x1="261" x2="261" y1="118.5938" y2="664.9844"/><line style="stroke:#181818;stroke-width:0.5;stroke-dasharray:5.0,5.0;" x1="426.5" x2="426.5" y1="118.5938" y2="664.9844"/><line style="stroke:#181818;stroke-width:0.5;stroke-dasharray:5.0,5.0;" x1="506" x2="506" y1="118.5938" y2="664.9844"/><line style="stroke:#181818;stroke-width:0.5;stroke-dasharray:5.0,5.0;" x1="829" x2="829" y1="118.5938" y2="664.9844"/><line style="stroke:#181818;stroke-width:0.5;stroke-dasharray:5.0,5.0;" x1="1013" x2="1013" y1="118.5938" y2="664.9844"/><line style="stroke:#181818;stroke-width:0.5;stroke-dasharray:5.0,5.0;" x1="1083" x2="1083" y1="118.5938" y2="664.9844"/><line style="stroke:#181818;stroke-width:0.5;stroke-dasharray:5.0,5.0;" x1="1159" x2="1159" y1="118.5938" y2="664.9844"/><text fill="#000000" font-family="sans-serif" font-size="14" lengthAdjust="spacing" textLength="32" x="5" y="115.292">User</text><ellipse cx="24" cy="50.7969" fill="#E2E2F0" rx="8" ry="8" style="stroke:#181818;stroke-width:0.5;"/><path d="M24,58.7969 L24,85.7969 M11,66.7969 L37,66.7969 M24,85.7969 L11,100.7969 M24,85.7969 L37,100.7969 " fill="none" style="stroke:#181818;stroke-width:0.5;"/><text fill="#000000" font-family="sans-serif" font-size="14" lengthAdjust="spacing" textLength="32" x="5" y="676.9795">User</text><ellipse cx="24" cy="688.7813" fill="#E2E2F0" rx="8" ry="8" style="stroke:#181818;stroke-width:0.5;"/><path d="M24,696.7813 L24,723.7813 M11,704.7813 L37,704.7813 M24,723.7813 L11,738.7813 M24,723.7813 L37,738.7813 " fill="none" style="stroke:#181818;stroke-width:0.5;"/><rect fill="#E2E2F0" height="30.2969" rx="2.5" ry="2.5" style="stroke:#181818;stroke-width:0.5;" width="94" x="214" y="87.2969"/><text fill="#000000" font-family="sans-serif" font-size="14" lengthAdjust="spacing" textLength="80" x="221" y="107.292">FitnessONE</text><rect fill="#E2E2F0" height="30.2969" rx="2.5" ry="2.5" style="stroke:#181818;stroke-width:0.5;" width="94" x="214" y="663.9844"/><text fill="#000000" font-family="sans-serif" font-size="14" lengthAdjust="spacing" textLength="80" x="221" y="683.9795">FitnessONE</text><rect fill="#E2E2F0" height="30.2969" rx="2.5" ry="2.5" style="stroke:#181818;stroke-width:0.5;" width="27" x="413.5" y="87.2969"/><text fill="#000000" font-family="sans-serif" font-size="14" lengthAdjust="spacing" textLength="13" x="420.5" y="107.292">Ui</text><rect fill="#E2E2F0" height="30.2969" rx="2.5" ry="2.5" style="stroke:#181818;stroke-width:0.5;" width="27" x="413.5" y="663.9844"/><text fill="#000000" font-family="sans-serif" font-size="14" lengthAdjust="spacing" textLength="13" x="420.5" y="683.9795">Ui</text><rect fill="#E2E2F0" height="30.2969" rx="2.5" ry="2.5" style="stroke:#181818;stroke-width:0.5;" width="58" x="477" y="87.2969"/><text fill="#000000" font-family="sans-serif" font-size="14" lengthAdjust="spacing" textLength="44" x="484" y="107.292">Parser</text><rect fill="#E2E2F0" height="30.2969" rx="2.5" ry="2.5" style="stroke:#181818;stroke-width:0.5;" width="58" x="477" y="663.9844"/><text fill="#000000" font-family="sans-serif" font-size="14" lengthAdjust="spacing" textLength="44" x="484" y="683.9795">Parser</text><rect fill="#E2E2F0" height="30.2969" rx="2.5" ry="2.5" style="stroke:#181818;stroke-width:0.5;" width="180" x="739" y="87.2969"/><text fill="#000000" font-family="sans-serif" font-size="14" lengthAdjust="spacing" textLength="166" x="746" y="107.292">ViewSessionsCommand</text><rect fill="#E2E2F0" height="30.2969" rx="2.5" ry="2.5" style="stroke:#181818;stroke-width:0.5;" width="180" x="739" y="663.9844"/><text fill="#000000" font-family="sans-serif" font-size="14" lengthAdjust="spacing" textLength="166" x="746" y="683.9795">ViewSessionsCommand</text><rect fill="#E2E2F0" height="30.2969" rx="2.5" ry="2.5" style="stroke:#181818;stroke-width:0.5;" width="58" x="984" y="87.2969"/><text fill="#000000" font-family="sans-serif" font-size="14" lengthAdjust="spacing" textLength="44" x="991" y="107.292">Coach</text><rect fill="#E2E2F0" height="30.2969" rx="2.5" ry="2.5" style="stroke:#181818;stroke-width:0.5;" width="58" x="984" y="663.9844"/><text fill="#000000" font-family="sans-serif" font-size="14" lengthAdjust="spacing" textLength="44" x="991" y="683.9795">Coach</text><rect fill="#E2E2F0" height="30.2969" rx="2.5" ry="2.5" style="stroke:#181818;stroke-width:0.5;" width="63" x="1052" y="87.2969"/><text fill="#000000" font-family="sans-serif" font-size="14" lengthAdjust="spacing" textLength="49" x="1059" y="107.292">Athlete</text><rect fill="#E2E2F0" height="30.2969" rx="2.5" ry="2.5" style="stroke:#181818;stroke-width:0.5;" width="63" x="1052" y="663.9844"/><text fill="#000000" font-family="sans-serif" font-size="14" lengthAdjust="spacing" textLength="49" x="1059" y="683.9795">Athlete</text><rect fill="#E2E2F0" height="30.2969" rx="2.5" ry="2.5" style="stroke:#181818;stroke-width:0.5;" width="69" x="1125" y="87.2969"/><text fill="#000000" font-family="sans-serif" font-size="14" lengthAdjust="spacing" textLength="55" x="1132" y="107.292">Session</text><rect fill="#E2E2F0" height="30.2969" rx="2.5" ry="2.5" style="stroke:#181818;stroke-width:0.5;" width="69" x="1125" y="663.9844"/><text fill="#000000" font-family="sans-serif" font-size="14" lengthAdjust="spacing" textLength="55" x="1132" y="683.9795">Session</text><rect fill="#FFFFFF" height="497.2578" style="stroke:#181818;stroke-width:1.0;" width="10" x="256" y="149.7266"/><rect fill="#FFFFFF" height="29.1328" style="stroke:#181818;stroke-width:1.0;" width="10" x="422" y="178.8594"/><rect fill="#FFFFFF" height="29.1328" style="stroke:#181818;stroke-width:1.0;" width="10" x="422" y="617.8516"/><rect fill="#FFFFFF" height="87.3984" style="stroke:#181818;stroke-width:1.0;" width="10" x="501" y="237.125"/><rect fill="#FFFFFF" height="29.1328" style="stroke:#181818;stroke-width:1.0;" width="10" x="824" y="266.2578"/><rect fill="#FFFFFF" height="293.3281" style="stroke:#181818;stroke-width:1.0;" width="10" x="824" y="353.6563"/><rect fill="#FFFFFF" height="29.1328" style="stroke:#181818;stroke-width:1.0;" width="10" x="1008" y="382.7891"/><rect fill="#FFFFFF" height="29.1328" style="stroke:#181818;stroke-width:1.0;" width="10" x="1078.5" y="441.0547"/><rect fill="#FFFFFF" height="29.1328" style="stroke:#181818;stroke-width:1.0;" width="10" x="1154.5" y="523.4531"/><polygon fill="#181818" points="244,145.7266,254,149.7266,244,153.7266,248,149.7266" style="stroke:#181818;stroke-width:1.0;"/><line style="stroke:#181818;stroke-width:1.0;" x1="24" x2="250" y1="149.7266" y2="149.7266"/><text fill="#000000" font-family="sans-serif" font-size="13" lengthAdjust="spacing" textLength="213" x="31" y="144.6606">(user types "/viewsessions 0001")</text><polygon fill="#181818" points="410,174.8594,420,178.8594,410,182.8594,414,178.8594" style="stroke:#181818;stroke-width:1.0;"/><line style="stroke:#181818;stroke-width:1.0;" x1="266" x2="416" y1="178.8594" y2="178.8594"/><text fill="#000000" font-family="sans-serif" font-size="13" lengthAdjust="spacing" textLength="106" x="273" y="173.7935">readCommand()</text><polygon fill="#181818" points="277,203.9922,267,207.9922,277,211.9922,273,207.9922" style="stroke:#181818;stroke-width:1.0;"/><line style="stroke:#181818;stroke-width:1.0;stroke-dasharray:2.0,2.0;" x1="271" x2="426" y1="207.9922" y2="207.9922"/><text fill="#000000" font-family="sans-serif" font-size="13" lengthAdjust="spacing" textLength="132" x="283" y="202.9263">"/viewsessions 0001"</text><polygon fill="#181818" points="489,233.125,499,237.125,489,241.125,493,237.125" style="stroke:#181818;stroke-width:1.0;"/><line style="stroke:#181818;stroke-width:1.0;" x1="266" x2="495" y1="237.125" y2="237.125"/><text fill="#000000" font-family="sans-serif" font-size="13" lengthAdjust="spacing" textLength="178" x="273" y="232.0591">parse("/viewsessions 0001")</text><polygon fill="#181818" points="812,262.2578,822,266.2578,812,270.2578,816,266.2578" style="stroke:#181818;stroke-width:1.0;"/><line style="stroke:#181818;stroke-width:1.0;" x1="511" x2="818" y1="266.2578" y2="266.2578"/><text fill="#000000" font-family="sans-serif" font-size="13" lengthAdjust="spacing" textLength="294" x="518" y="261.1919">&lt;&lt;create&gt;&gt; ViewSessionsCommand("0001")</text><polygon fill="#181818" points="522,291.3906,512,295.3906,522,299.3906,518,295.3906" style="stroke:#181818;stroke-width:1.0;"/><line style="stroke:#181818;stroke-width:1.0;stroke-dasharray:2.0,2.0;" x1="516" x2="828" y1="295.3906" y2="295.3906"/><text fill="#000000" font-family="sans-serif" font-size="13" lengthAdjust="spacing" textLength="76" x="528" y="290.3247">constructed</text><polygon fill="#181818" points="277,320.5234,267,324.5234,277,328.5234,273,324.5234" style="stroke:#181818;stroke-width:1.0;"/><line style="stroke:#181818;stroke-width:1.0;stroke-dasharray:2.0,2.0;" x1="271" x2="505" y1="324.5234" y2="324.5234"/><text fill="#000000" font-family="sans-serif" font-size="13" lengthAdjust="spacing" textLength="211" x="283" y="319.4575">ViewSessionsCommand instance</text><polygon fill="#181818" points="812,349.6563,822,353.6563,812,357.6563,816,353.6563" style="stroke:#181818;stroke-width:1.0;"/><line style="stroke:#181818;stroke-width:1.0;" x1="266" x2="818" y1="353.6563" y2="353.6563"/><text fill="#000000" font-family="sans-serif" font-size="13" lengthAdjust="spacing" textLength="196" x="273" y="348.5903">execute(coachController, view)</text><polygon fill="#181818" points="996,378.7891,1006,382.7891,996,386.7891,1000,382.7891" style="stroke:#181818;stroke-width:1.0;"/><line style="stroke:#181818;stroke-width:1.0;" x1="834" x2="1002" y1="382.7891" y2="382.7891"/><text fill="#000000" font-family="sans-serif" font-size="13" lengthAdjust="spacing" textLength="155" x="841" y="377.7231">accessAthleteID("0001")</text><polygon fill="#181818" points="845,407.9219,835,411.9219,845,415.9219,841,411.9219" style="stroke:#181818;stroke-width:1.0;"/><line style="stroke:#181818;stroke-width:1.0;stroke-dasharray:2.0,2.0;" x1="839" x2="1012" y1="411.9219" y2="411.9219"/><text fill="#000000" font-family="sans-serif" font-size="13" lengthAdjust="spacing" textLength="104" x="851" y="406.856">Athlete instance</text><polygon fill="#181818" points="1066.5,437.0547,1076.5,441.0547,1066.5,445.0547,1070.5,441.0547" style="stroke:#181818;stroke-width:1.0;"/><line style="stroke:#181818;stroke-width:1.0;" x1="834" x2="1072.5" y1="441.0547" y2="441.0547"/><text fill="#000000" font-family="sans-serif" font-size="13" lengthAdjust="spacing" textLength="88" x="841" y="435.9888">getSessions()</text><polygon fill="#181818" points="845,466.1875,835,470.1875,845,474.1875,841,470.1875" style="stroke:#181818;stroke-width:1.0;"/><line style="stroke:#181818;stroke-width:1.0;stroke-dasharray:2.0,2.0;" x1="839" x2="1082.5" y1="470.1875" y2="470.1875"/><text fill="#000000" font-family="sans-serif" font-size="13" lengthAdjust="spacing" textLength="128" x="851" y="465.1216">ArrayList&lt;Session&gt;</text><path d="M403.5,485.1875 L480.5,485.1875 L480.5,492.3203 L470.5,502.3203 L403.5,502.3203 L403.5,485.1875 " fill="#EEEEEE" style="stroke:#000000;stroke-width:1.5;"/><rect fill="none" height="104.5313" style="stroke:#000000;stroke-width:1.5;" width="800.5" x="403.5" y="485.1875"/><text fill="#000000" font-family="sans-serif" font-size="13" font-weight="bold" lengthAdjust="spacing" textLength="32" x="418.5" y="498.2544">loop</text><text fill="#000000" font-family="sans-serif" font-size="11" font-weight="bold" lengthAdjust="spacing" textLength="116" x="495.5" y="497.3979">[for each session]</text><polygon fill="#181818" points="1142.5,519.4531,1152.5,523.4531,1142.5,527.4531,1146.5,523.4531" style="stroke:#181818;stroke-width:1.0;"/><line style="stroke:#181818;stroke-width:1.0;" x1="834" x2="1148.5" y1="523.4531" y2="523.4531"/><text fill="#000000" font-family="sans-serif" font-size="13" lengthAdjust="spacing" textLength="90" x="841" y="518.3872">isCompleted()</text><polygon fill="#181818" points="845,548.5859,835,552.5859,845,556.5859,841,552.5859" style="stroke:#181818;stroke-width:1.0;"/><line style="stroke:#181818;stroke-width:1.0;stroke-dasharray:2.0,2.0;" x1="839" x2="1158.5" y1="552.5859" y2="552.5859"/><text fill="#000000" font-family="sans-serif" font-size="13" lengthAdjust="spacing" textLength="40" x="851" y="547.52">status</text><polygon fill="#181818" points="438,577.7188,428,581.7188,438,585.7188,434,581.7188" style="stroke:#181818;stroke-width:1.0;"/><line style="stroke:#181818;stroke-width:1.0;" x1="432" x2="823" y1="581.7188" y2="581.7188"/><text fill="#000000" font-family="sans-serif" font-size="13" lengthAdjust="spacing" textLength="125" x="444" y="576.6528">println(session info)</text><polygon fill="#181818" points="443,613.8516,433,617.8516,443,621.8516,439,617.8516" style="stroke:#181818;stroke-width:1.0;"/><line style="stroke:#181818;stroke-width:1.0;" x1="437" x2="823" y1="617.8516" y2="617.8516"/><text fill="#000000" font-family="sans-serif" font-size="13" lengthAdjust="spacing" textLength="52" x="449" y="612.7856">divider()</text><polygon fill="#181818" points="35,642.9844,25,646.9844,35,650.9844,31,646.9844" style="stroke:#181818;stroke-width:1.0;"/><line style="stroke:#181818;stroke-width:1.0;stroke-dasharray:2.0,2.0;" x1="29" x2="426" y1="646.9844" y2="646.9844"/><text fill="#000000" font-family="sans-serif" font-size="13" lengthAdjust="spacing" textLength="103" x="41" y="641.9185">display sessions</text><!--MD5=[79737a4a4d0e48ade60598f06e72bdf1]
@startuml
title ViewSessions Sequence Diagram (Parser passes parsed args)

actor User
participant FitnessONE
participant Ui
participant Parser
participant ViewSessionsCommand
participant Coach

User -> FitnessONE: (user types "/viewsessions 0001")
activate FitnessONE

FitnessONE -> Ui: readCommand()
activate Ui
Ui - -> FitnessONE: "/viewsessions 0001"
deactivate Ui

FitnessONE -> Parser: parse("/viewsessions 0001")
activate Parser
' Parser parses arguments first, then constructs command with parsed params
Parser -> ViewSessionsCommand: <<create>> ViewSessionsCommand("0001")
activate ViewSessionsCommand
ViewSessionsCommand - -> Parser: constructed
deactivate ViewSessionsCommand
Parser - -> FitnessONE: ViewSessionsCommand instance
deactivate Parser

FitnessONE -> ViewSessionsCommand: execute(coachController, view)
activate ViewSessionsCommand
ViewSessionsCommand -> Coach: accessAthleteID("0001")
activate Coach
Coach - -> ViewSessionsCommand: Athlete instance
deactivate Coach
ViewSessionsCommand -> Athlete: getSessions()
activate Athlete
Athlete - -> ViewSessionsCommand: ArrayList<Session>
deactivate Athlete

loop for each session
    ViewSessionsCommand -> Session: isCompleted()
    activate Session
    Session - -> ViewSessionsCommand: status
    deactivate Session
    ViewSessionsCommand -> Ui: println(session info)
end

ViewSessionsCommand -> Ui: divider()
activate Ui
Ui - -> User: display sessions
deactivate Ui
deactivate ViewSessionsCommand

deactivate FitnessONE
@enduml

@startuml
title ViewSessions Sequence Diagram (Parser passes parsed args)

actor User
participant FitnessONE
participant Ui
participant Parser
participant ViewSessionsCommand
participant Coach

User -> FitnessONE: (user types "/viewsessions 0001")
activate FitnessONE

FitnessONE -> Ui: readCommand()
activate Ui
Ui - -> FitnessONE: "/viewsessions 0001"
deactivate Ui

FitnessONE -> Parser: parse("/viewsessions 0001")
activate Parser
Parser -> ViewSessionsCommand: <<create>> ViewSessionsCommand("0001")
activate ViewSessionsCommand
ViewSessionsCommand - -> Parser: constructed
deactivate ViewSessionsCommand
Parser - -> FitnessONE: ViewSessionsCommand instance
deactivate Parser

FitnessONE -> ViewSessionsCommand: execute(coachController, view)
activate ViewSessionsCommand
ViewSessionsCommand -> Coach: accessAthleteID("0001")
activate Coach
Coach - -> ViewSessionsCommand: Athlete instance
deactivate Coach
ViewSessionsCommand -> Athlete: getSessions()
activate Athlete
Athlete - -> ViewSessionsCommand: ArrayList<Session>
deactivate Athlete

loop for each session
    ViewSessionsCommand -> Session: isCompleted()
    activate Session
    Session - -> ViewSessionsCommand: status
    deactivate Session
    ViewSessionsCommand -> Ui: println(session info)
end

ViewSessionsCommand -> Ui: divider()
activate Ui
Ui - -> User: display sessions
deactivate Ui
deactivate ViewSessionsCommand

deactivate FitnessONE
@enduml

PlantUML version 1.2022.7(Mon Aug 22 17:01:30 UTC 2022)
(GPL source distribution)
Java Runtime: OpenJDK Runtime Environment
JVM: OpenJDK 64-Bit Server VM
Default Encoding: UTF-8
Language: en
Country: null
--></g></svg>